<svg width="260" height="200" viewBox="0 0 260 200" fill="none" xmlns="http://www.w3.org/2000/svg">
<rect width="260" height="200" rx="6" fill="white"/>
<path d="M125 168C125 159.163 132.163 152 141 152H228C236.837 152 244 159.163 244 168C244 176.837 236.837 184 228 184H141C132.163 184 125 176.837 125 168Z" fill="#FF3E79"/>
<path d="M145.003 166.24C145.003 166.528 144.947 166.76 144.835 166.936C144.723 167.104 144.599 167.236 144.463 167.332C144.303 167.444 144.123 167.52 143.923 167.56V167.68C144.147 167.728 144.347 167.816 144.523 167.944C144.675 168.056 144.811 168.216 144.931 168.424C145.059 168.624 145.123 168.896 145.123 169.24V170.02C145.123 171.42 144.423 172.12 143.023 172.12H139.723C138.323 172.12 137.623 171.42 137.623 170.02V169.42C137.623 169.22 137.723 169.12 137.923 169.12H139.243C139.443 169.12 139.543 169.22 139.543 169.42V169.78C139.543 170.22 139.763 170.44 140.203 170.44H142.543C142.983 170.44 143.203 170.22 143.203 169.78V169.24C143.203 168.8 142.983 168.58 142.543 168.58H140.803C140.603 168.58 140.503 168.48 140.503 168.28V167.2C140.503 167 140.603 166.9 140.803 166.9H142.423C142.863 166.9 143.083 166.68 143.083 166.24V165.82C143.083 165.38 142.863 165.16 142.423 165.16H140.323C139.883 165.16 139.663 165.38 139.663 165.82V166.18C139.663 166.38 139.563 166.48 139.363 166.48H138.043C137.843 166.48 137.743 166.38 137.743 166.18V165.58C137.743 164.18 138.443 163.48 139.843 163.48H142.903C144.303 163.48 145.003 164.18 145.003 165.58V166.24ZM148.493 170.26L147.953 171.7C147.913 171.788 147.861 171.86 147.797 171.916C147.741 171.972 147.653 172 147.533 172H146.033C145.833 172 145.773 171.9 145.853 171.7L148.793 163.9C148.873 163.7 149.033 163.6 149.273 163.6H151.013C151.133 163.6 151.221 163.628 151.277 163.684C151.341 163.74 151.393 163.812 151.433 163.9L154.373 171.7C154.453 171.9 154.393 172 154.193 172H152.693C152.573 172 152.481 171.972 152.417 171.916C152.361 171.86 152.313 171.788 152.273 171.7L151.733 170.26H148.493ZM151.133 168.58L150.173 166H150.053L149.093 168.58H151.133ZM157.263 166.78H158.883L160.443 163.9C160.491 163.812 160.551 163.74 160.623 163.684C160.703 163.628 160.803 163.6 160.923 163.6H162.423C162.511 163.6 162.575 163.628 162.615 163.684C162.655 163.74 162.651 163.812 162.603 163.9L160.563 167.56L162.843 171.7C162.891 171.788 162.895 171.86 162.855 171.916C162.815 171.972 162.751 172 162.663 172H161.163C161.043 172 160.943 171.972 160.863 171.916C160.791 171.86 160.731 171.788 160.683 171.7L158.943 168.46H157.263V171.7C157.263 171.9 157.163 172 156.963 172H155.643C155.443 172 155.343 171.9 155.343 171.7V163.9C155.343 163.7 155.443 163.6 155.643 163.6H156.963C157.163 163.6 157.263 163.7 157.263 163.9V166.78ZM165.654 170.26L165.114 171.7C165.074 171.788 165.022 171.86 164.958 171.916C164.902 171.972 164.814 172 164.694 172H163.194C162.994 172 162.934 171.9 163.014 171.7L165.954 163.9C166.034 163.7 166.194 163.6 166.434 163.6H168.174C168.294 163.6 168.382 163.628 168.438 163.684C168.502 163.74 168.554 163.812 168.594 163.9L171.534 171.7C171.614 171.9 171.554 172 171.354 172H169.854C169.734 172 169.642 171.972 169.578 171.916C169.522 171.86 169.474 171.788 169.434 171.7L168.894 170.26H165.654ZM168.294 168.58L167.334 166H167.214L166.254 168.58H168.294ZM179.524 166.24C179.524 166.528 179.468 166.76 179.356 166.936C179.244 167.104 179.12 167.236 178.984 167.332C178.824 167.444 178.644 167.52 178.444 167.56V167.68C178.668 167.728 178.868 167.816 179.044 167.944C179.196 168.056 179.332 168.216 179.452 168.424C179.58 168.624 179.644 168.896 179.644 169.24V170.02C179.644 171.42 178.944 172.12 177.544 172.12H174.244C172.844 172.12 172.144 171.42 172.144 170.02V169.42C172.144 169.22 172.244 169.12 172.444 169.12H173.764C173.964 169.12 174.064 169.22 174.064 169.42V169.78C174.064 170.22 174.284 170.44 174.724 170.44H177.064C177.504 170.44 177.724 170.22 177.724 169.78V169.24C177.724 168.8 177.504 168.58 177.064 168.58H175.324C175.124 168.58 175.024 168.48 175.024 168.28V167.2C175.024 167 175.124 166.9 175.324 166.9H176.944C177.384 166.9 177.604 166.68 177.604 166.24V165.82C177.604 165.38 177.384 165.16 176.944 165.16H174.844C174.404 165.16 174.184 165.38 174.184 165.82V166.18C174.184 166.38 174.084 166.48 173.884 166.48H172.564C172.364 166.48 172.264 166.38 172.264 166.18V165.58C172.264 164.18 172.964 163.48 174.364 163.48H177.424C178.824 163.48 179.524 164.18 179.524 165.58V166.24ZM183.014 170.26L182.474 171.7C182.434 171.788 182.382 171.86 182.318 171.916C182.262 171.972 182.174 172 182.054 172H180.554C180.354 172 180.294 171.9 180.374 171.7L183.314 163.9C183.394 163.7 183.554 163.6 183.794 163.6H185.534C185.654 163.6 185.742 163.628 185.798 163.684C185.862 163.74 185.914 163.812 185.954 163.9L188.894 171.7C188.974 171.9 188.914 172 188.714 172H187.214C187.094 172 187.002 171.972 186.938 171.916C186.882 171.86 186.834 171.788 186.794 171.7L186.254 170.26H183.014ZM185.654 168.58L184.694 166H184.574L183.614 168.58H185.654ZM192.449 171.7C192.449 171.9 192.349 172 192.149 172H190.829C190.629 172 190.529 171.9 190.529 171.7V165.28H188.129C187.929 165.28 187.829 165.18 187.829 164.98V163.9C187.829 163.7 187.929 163.6 188.129 163.6H194.849C195.049 163.6 195.149 163.7 195.149 163.9V164.98C195.149 165.18 195.049 165.28 194.849 165.28H192.449V171.7ZM201.177 166.12C202.577 166.12 203.277 166.82 203.277 168.22V169.9C203.277 171.3 202.577 172 201.177 172H196.377C196.177 172 196.077 171.9 196.077 171.7V163.9C196.077 163.7 196.177 163.6 196.377 163.6H197.697C197.897 163.6 197.997 163.7 197.997 163.9V166.12H201.177ZM200.697 170.32C201.137 170.32 201.357 170.1 201.357 169.66V168.46C201.357 168.02 201.137 167.8 200.697 167.8H197.997V170.32H200.697Z" fill="white"/>
<rect x="212" y="156" width="24" height="24" rx="12" fill="#FF3E79"/>
<path fill-rule="evenodd" clip-rule="evenodd" d="M224.8 168L221.792 165.229C221.364 164.835 221.361 164.161 221.785 163.764L221.92 163.637C222.303 163.278 222.899 163.276 223.284 163.633L227.938 167.943C227.971 167.974 227.971 168.026 227.938 168.057L223.347 172.309C222.926 172.698 222.276 172.696 221.858 172.304C221.394 171.87 221.398 171.134 221.865 170.704L224.8 168Z" fill="white"/>
<path d="M19.15 171.1C19.01 171.1 18.94 171.03 18.94 170.89V170.61C18.94 170.507 18.9587 170.433 18.996 170.386C19.0427 170.33 19.094 170.265 19.15 170.19L22.37 167.18V167.11H17.47C17.33 167.11 17.26 167.04 17.26 166.9V166.41C17.26 166.27 17.33 166.2 17.47 166.2H23.63C23.77 166.2 23.84 166.27 23.84 166.41V166.69C23.84 166.793 23.8167 166.872 23.77 166.928C23.7327 166.975 23.686 167.035 23.63 167.11L20.41 170.12V170.19H21.53C22.3047 170.19 22.9067 170.405 23.336 170.834C23.7653 171.263 23.98 171.865 23.98 172.64V173.69C23.98 174.465 23.7653 175.067 23.336 175.496C22.9067 175.925 22.3047 176.14 21.53 176.14H19.43C18.6553 176.14 18.0533 175.925 17.624 175.496C17.1947 175.067 16.98 174.465 16.98 173.69V173.27C16.98 173.13 17.05 173.06 17.19 173.06H17.68C17.82 173.06 17.89 173.13 17.89 173.27V173.69C17.89 174.185 18.0207 174.567 18.282 174.838C18.5527 175.099 18.9353 175.23 19.43 175.23H21.53C22.0247 175.23 22.4027 175.099 22.664 174.838C22.9347 174.567 23.07 174.185 23.07 173.69V172.64C23.07 172.145 22.9347 171.767 22.664 171.506C22.4027 171.235 22.0247 171.1 21.53 171.1H19.15ZM33.2155 168.51C33.2155 168.015 33.0801 167.637 32.8095 167.376C32.5481 167.105 32.1701 166.97 31.6755 166.97H29.0855C28.5908 166.97 28.2081 167.105 27.9375 167.376C27.6761 167.637 27.5455 168.015 27.5455 168.51V173.69C27.5455 174.185 27.6761 174.567 27.9375 174.838C28.2081 175.099 28.5908 175.23 29.0855 175.23H31.6755C32.1701 175.23 32.5481 175.099 32.8095 174.838C33.0801 174.567 33.2155 174.185 33.2155 173.69V168.51ZM34.1255 173.69C34.1255 174.465 33.9108 175.067 33.4815 175.496C33.0521 175.925 32.4501 176.14 31.6755 176.14H29.0855C28.3108 176.14 27.7088 175.925 27.2795 175.496C26.8501 175.067 26.6355 174.465 26.6355 173.69V168.51C26.6355 167.735 26.8501 167.133 27.2795 166.704C27.7088 166.275 28.3108 166.06 29.0855 166.06H31.6755C32.4501 166.06 33.0521 166.275 33.4815 166.704C33.9108 167.133 34.1255 167.735 34.1255 168.51V173.69ZM43.6244 176C43.5217 176 43.447 175.986 43.4004 175.958C43.3537 175.921 43.3117 175.865 43.2744 175.79L40.6844 170.4H40.6144V175.79C40.6144 175.93 40.5444 176 40.4044 176H39.9844C39.8444 176 39.7744 175.93 39.7744 175.79V169.07C39.7744 168.93 39.8444 168.86 39.9844 168.86H40.5444C40.647 168.86 40.7217 168.879 40.7684 168.916C40.815 168.944 40.857 168.995 40.8944 169.07L43.6944 174.88H43.7644L46.5644 169.07C46.6017 168.995 46.6437 168.944 46.6904 168.916C46.737 168.879 46.8117 168.86 46.9144 168.86H47.4744C47.6144 168.86 47.6844 168.93 47.6844 169.07V175.79C47.6844 175.93 47.6144 176 47.4744 176H47.0544C46.9144 176 46.8444 175.93 46.8444 175.79V170.4H46.7744L44.1844 175.79C44.147 175.865 44.105 175.921 44.0584 175.958C44.0117 175.986 43.937 176 43.8344 176H43.6244ZM55.1693 170.12L51.3893 175.79C51.3426 175.865 51.296 175.921 51.2493 175.958C51.2026 175.986 51.1093 176 50.9693 176H50.4793C50.3393 176 50.2693 175.93 50.2693 175.79V169.07C50.2693 168.93 50.3393 168.86 50.4793 168.86H50.8993C51.0393 168.86 51.1093 168.93 51.1093 169.07V174.74H51.1793L54.9593 169.07C55.006 168.995 55.0526 168.944 55.0993 168.916C55.146 168.879 55.2393 168.86 55.3793 168.86H55.8693C56.0093 168.86 56.0793 168.93 56.0793 169.07V175.79C56.0793 175.93 56.0093 176 55.8693 176H55.4493C55.3093 176 55.2393 175.93 55.2393 175.79V170.12H55.1693ZM64.1188 168.86C64.2588 168.86 64.3288 168.93 64.3288 169.07V175.79C64.3288 175.93 64.2588 176 64.1188 176H63.6988C63.5588 176 63.4888 175.93 63.4888 175.79V172.78H59.4988V175.79C59.4988 175.93 59.4288 176 59.2888 176H58.8688C58.7288 176 58.6588 175.93 58.6588 175.79V169.07C58.6588 168.93 58.7288 168.86 58.8688 168.86H59.2888C59.4288 168.86 59.4988 168.93 59.4988 169.07V171.94H63.4888V169.07C63.4888 168.93 63.5588 168.86 63.6988 168.86H64.1188Z" fill="#1B1C21"/>
<path opacity="0.721842" d="M17.26 147.51C17.26 145.877 18.1 145.06 19.78 145.06H23C24.68 145.06 25.52 145.877 25.52 147.51V148.07C25.52 148.21 25.45 148.28 25.31 148.28H24.4C24.26 148.28 24.19 148.21 24.19 148.07V147.51C24.19 146.717 23.7933 146.32 23 146.32H19.78C18.9867 146.32 18.59 146.717 18.59 147.51V152.69C18.59 153.483 18.9867 153.88 19.78 153.88H23C23.7933 153.88 24.19 153.483 24.19 152.69V152.13C24.19 151.99 24.26 151.92 24.4 151.92H25.31C25.45 151.92 25.52 151.99 25.52 152.13V152.69C25.52 154.323 24.68 155.14 23 155.14H19.78C18.1 155.14 17.26 154.323 17.26 152.69V147.51ZM31.47 153.88C31.7873 153.88 32.0393 153.787 32.226 153.6C32.422 153.404 32.52 153.147 32.52 152.83V149.89C32.52 149.573 32.422 149.321 32.226 149.134C32.0393 148.938 31.7873 148.84 31.47 148.84H30.28C29.86 148.84 29.51 148.98 29.23 149.26C28.95 149.54 28.81 149.89 28.81 150.31V153.88H31.47ZM28.81 155V157.45C28.81 157.59 28.74 157.66 28.6 157.66H27.83C27.69 157.66 27.62 157.59 27.62 157.45V148.07C27.62 147.93 27.69 147.86 27.83 147.86H28.6C28.74 147.86 28.81 147.93 28.81 148.07V148.56H28.88C28.9547 148.401 29.062 148.261 29.202 148.14C29.3233 148.037 29.482 147.944 29.678 147.86C29.874 147.767 30.1213 147.72 30.42 147.72H31.47C32.2073 147.72 32.7627 147.907 33.136 148.28C33.5187 148.653 33.71 149.19 33.71 149.89V152.83C33.71 153.53 33.5187 154.067 33.136 154.44C32.7627 154.813 32.2073 155 31.47 155H28.81ZM40.7095 149.89C40.7095 149.573 40.6115 149.321 40.4155 149.134C40.2288 148.938 39.9768 148.84 39.6595 148.84H37.9095C37.5921 148.84 37.3355 148.938 37.1395 149.134C36.9528 149.321 36.8595 149.573 36.8595 149.89V152.97C36.8595 153.287 36.9528 153.544 37.1395 153.74C37.3355 153.927 37.5921 154.02 37.9095 154.02H39.6595C39.9768 154.02 40.2288 153.927 40.4155 153.74C40.6115 153.544 40.7095 153.287 40.7095 152.97V149.89ZM41.8995 152.97C41.8995 153.67 41.7081 154.207 41.3255 154.58C40.9521 154.953 40.3968 155.14 39.6595 155.14H37.9095C37.1721 155.14 36.6121 154.953 36.2295 154.58C35.8561 154.207 35.6695 153.67 35.6695 152.97V149.89C35.6695 149.19 35.8561 148.653 36.2295 148.28C36.6121 147.907 37.1721 147.72 37.9095 147.72H39.6595C40.3968 147.72 40.9521 147.907 41.3255 148.28C41.7081 148.653 41.8995 149.19 41.8995 149.89V152.97ZM46.9389 151.78H45.1889V154.79C45.1889 154.93 45.1189 155 44.9789 155H44.2089C44.0689 155 43.9989 154.93 43.9989 154.79V148.07C43.9989 147.93 44.0689 147.86 44.2089 147.86H44.9789C45.1189 147.86 45.1889 147.93 45.1889 148.07V150.66H46.9389L48.3389 148.07C48.3762 147.995 48.4182 147.944 48.4649 147.916C48.5116 147.879 48.5862 147.86 48.6889 147.86H49.5289C49.6876 147.86 49.7342 147.93 49.6689 148.07L47.9189 151.22L49.8789 154.79C49.9442 154.93 49.8976 155 49.7389 155H48.8989C48.7962 155 48.7216 154.986 48.6749 154.958C48.6282 154.921 48.5862 154.865 48.5489 154.79L46.9389 151.78Z" fill="#7E7E82"/>
<path opacity="0.721842" d="M22.72 24.66C23.5133 24.66 23.91 24.2633 23.91 23.47V21.65C23.91 20.8567 23.5133 20.46 22.72 20.46H18.73V24.66H22.72ZM18.73 25.92V28.79C18.73 28.93 18.66 29 18.52 29H17.61C17.47 29 17.4 28.93 17.4 28.79V19.41C17.4 19.27 17.47 19.2 17.61 19.2H22.72C24.4 19.2 25.24 20.0167 25.24 21.65V23.47C25.24 25.1033 24.4 25.92 22.72 25.92H18.73ZM32.1766 24.8V23.89C32.1766 23.5727 32.0786 23.3207 31.8826 23.134C31.6959 22.938 31.4439 22.84 31.1266 22.84H29.4466C29.1292 22.84 28.8726 22.938 28.6766 23.134C28.4899 23.3207 28.3966 23.5727 28.3966 23.89V24.8H32.1766ZM28.3966 25.92V26.97C28.3966 27.2873 28.4899 27.544 28.6766 27.74C28.8726 27.9267 29.1292 28.02 29.4466 28.02H31.1266C31.4439 28.02 31.6959 27.9267 31.8826 27.74C32.0786 27.544 32.1766 27.2873 32.1766 26.97V26.9C32.1766 26.76 32.2466 26.69 32.3866 26.69H33.1566C33.2966 26.69 33.3666 26.76 33.3666 26.9V26.97C33.3666 27.67 33.1752 28.2067 32.7926 28.58C32.4192 28.9533 31.8639 29.14 31.1266 29.14H29.4466C28.7092 29.14 28.1492 28.9533 27.7666 28.58C27.3932 28.2067 27.2066 27.67 27.2066 26.97V23.89C27.2066 23.19 27.3932 22.6533 27.7666 22.28C28.1492 21.9067 28.7092 21.72 29.4466 21.72H31.1266C31.8639 21.72 32.4192 21.9067 32.7926 22.28C33.1752 22.6533 33.3666 23.19 33.3666 23.89V25.71C33.3666 25.85 33.2966 25.92 33.1566 25.92H28.3966ZM39.5277 27.46L42.0477 22.07C42.085 21.9953 42.127 21.944 42.1737 21.916C42.2297 21.8787 42.3277 21.86 42.4677 21.86H43.3077C43.4477 21.86 43.5177 21.93 43.5177 22.07V28.79C43.5177 28.93 43.4477 29 43.3077 29H42.5377C42.3977 29 42.3277 28.93 42.3277 28.79V24.17H42.2577L40.0877 28.79C40.0503 28.8647 40.0037 28.9207 39.9477 28.958C39.901 28.986 39.8077 29 39.6677 29H39.3177C39.1777 29 39.0797 28.986 39.0237 28.958C38.977 28.9207 38.935 28.8647 38.8977 28.79L36.7277 24.17H36.6577V28.79C36.6577 28.93 36.5877 29 36.4477 29H35.6777C35.5377 29 35.4677 28.93 35.4677 28.79V22.07C35.4677 21.93 35.5377 21.86 35.6777 21.86H36.5177C36.6577 21.86 36.751 21.8787 36.7977 21.916C36.8537 21.944 36.9003 21.9953 36.9377 22.07L39.4577 27.46H39.5277ZM50.6626 23.89C50.6626 23.5727 50.5646 23.3207 50.3686 23.134C50.1819 22.938 49.9299 22.84 49.6126 22.84H47.8626C47.5452 22.84 47.2886 22.938 47.0926 23.134C46.9059 23.3207 46.8126 23.5727 46.8126 23.89V26.97C46.8126 27.2873 46.9059 27.544 47.0926 27.74C47.2886 27.9267 47.5452 28.02 47.8626 28.02H49.6126C49.9299 28.02 50.1819 27.9267 50.3686 27.74C50.5646 27.544 50.6626 27.2873 50.6626 26.97V23.89ZM51.8526 26.97C51.8526 27.67 51.6612 28.2067 51.2786 28.58C50.9052 28.9533 50.3499 29.14 49.6126 29.14H47.8626C47.1252 29.14 46.5652 28.9533 46.1826 28.58C45.8092 28.2067 45.6226 27.67 45.6226 26.97V23.89C45.6226 23.19 45.8092 22.6533 46.1826 22.28C46.5652 21.9067 47.1252 21.72 47.8626 21.72H49.6126C50.3499 21.72 50.9052 21.9067 51.2786 22.28C51.6612 22.6533 51.8526 23.19 51.8526 23.89V26.97ZM55.142 25.92V28.79C55.142 28.93 55.072 29 54.932 29H54.162C54.022 29 53.952 28.93 53.952 28.79V22.07C53.952 21.93 54.022 21.86 54.162 21.86H54.932C55.072 21.86 55.142 21.93 55.142 22.07V24.87H58.712V22.07C58.712 21.93 58.782 21.86 58.922 21.86H59.692C59.832 21.86 59.902 21.93 59.902 22.07V28.79C59.902 28.93 59.832 29 59.692 29H58.922C58.782 29 58.712 28.93 58.712 28.79V25.92H55.142ZM63.7515 29C63.6115 29 63.5415 28.93 63.5415 28.79V22.98H61.3715C61.2315 22.98 61.1615 22.91 61.1615 22.77V22.07C61.1615 21.93 61.2315 21.86 61.3715 21.86H66.9015C67.0415 21.86 67.1115 21.93 67.1115 22.07V22.77C67.1115 22.91 67.0415 22.98 66.9015 22.98H64.7315V28.79C64.7315 28.93 64.6615 29 64.5215 29H63.7515ZM69.5659 25.92V28.79C69.5659 28.93 69.4959 29 69.3559 29H68.5859C68.4459 29 68.3759 28.93 68.3759 28.79V22.07C68.3759 21.93 68.4459 21.86 68.5859 21.86H69.3559C69.4959 21.86 69.5659 21.93 69.5659 22.07V24.87H73.1359V22.07C73.1359 21.93 73.2059 21.86 73.3459 21.86H74.1159C74.2559 21.86 74.3259 21.93 74.3259 22.07V28.79C74.3259 28.93 74.2559 29 74.1159 29H73.3459C73.2059 29 73.1359 28.93 73.1359 28.79V25.92H69.5659ZM79.9253 27.88C80.2053 27.88 80.4246 27.8007 80.5833 27.642C80.7513 27.474 80.8353 27.25 80.8353 26.97V26.27C80.8353 25.99 80.7513 25.7707 80.5833 25.612C80.4246 25.444 80.2053 25.36 79.9253 25.36H77.7553V27.88H79.9253ZM76.7753 29C76.6353 29 76.5653 28.93 76.5653 28.79V22.07C76.5653 21.93 76.6353 21.86 76.7753 21.86H77.5453C77.6853 21.86 77.7553 21.93 77.7553 22.07V24.24H79.9253C81.3253 24.24 82.0253 24.9167 82.0253 26.27V26.97C82.0253 28.3233 81.3253 29 79.9253 29H76.7753ZM84.4053 28.79C84.4053 28.93 84.3353 29 84.1953 29H83.4253C83.2853 29 83.2153 28.93 83.2153 28.79V22.07C83.2153 21.93 83.2853 21.86 83.4253 21.86H84.1953C84.3353 21.86 84.4053 21.93 84.4053 22.07V28.79ZM91.4715 24.8V23.89C91.4715 23.5727 91.3735 23.3207 91.1775 23.134C90.9908 22.938 90.7388 22.84 90.4215 22.84H88.7415C88.4242 22.84 88.1675 22.938 87.9715 23.134C87.7848 23.3207 87.6915 23.5727 87.6915 23.89V24.8H91.4715ZM87.6915 25.92V26.97C87.6915 27.2873 87.7848 27.544 87.9715 27.74C88.1675 27.9267 88.4242 28.02 88.7415 28.02H90.4215C90.7388 28.02 90.9908 27.9267 91.1775 27.74C91.3735 27.544 91.4715 27.2873 91.4715 26.97V26.9C91.4715 26.76 91.5415 26.69 91.6815 26.69H92.4515C92.5915 26.69 92.6615 26.76 92.6615 26.9V26.97C92.6615 27.67 92.4702 28.2067 92.0875 28.58C91.7142 28.9533 91.1588 29.14 90.4215 29.14H88.7415C88.0042 29.14 87.4442 28.9533 87.0615 28.58C86.6882 28.2067 86.5015 27.67 86.5015 26.97V23.89C86.5015 23.19 86.6882 22.6533 87.0615 22.28C87.4442 21.9067 88.0042 21.72 88.7415 21.72H90.4215C91.1588 21.72 91.7142 21.9067 92.0875 22.28C92.4702 22.6533 92.6615 23.19 92.6615 23.89V25.71C92.6615 25.85 92.5915 25.92 92.4515 25.92H87.6915ZM102.003 22.07C102.031 21.9953 102.069 21.944 102.115 21.916C102.171 21.8787 102.251 21.86 102.353 21.86H103.193C103.343 21.86 103.389 21.93 103.333 22.07L100.603 29C100.407 29.4947 100.216 29.91 100.029 30.246C99.8426 30.582 99.642 30.8527 99.4273 31.058C99.2126 31.2727 98.9793 31.4267 98.7273 31.52C98.4753 31.6133 98.1906 31.66 97.8733 31.66H97.5933C97.4533 31.66 97.3833 31.59 97.3833 31.45V30.75C97.3833 30.61 97.4533 30.54 97.5933 30.54H97.8733C98.228 30.54 98.5173 30.4233 98.7413 30.19C98.9746 29.9567 99.1986 29.56 99.4133 29L96.6833 22.07C96.6273 21.93 96.674 21.86 96.8233 21.86H97.6633C97.766 21.86 97.8406 21.8787 97.8873 21.916C97.9433 21.944 97.9853 21.9953 98.0133 22.07L99.9733 27.32H100.043L102.003 22.07ZM105.738 26.97C105.738 27.2873 105.832 27.544 106.018 27.74C106.214 27.9267 106.471 28.02 106.788 28.02H108.398C108.716 28.02 108.968 27.9267 109.154 27.74C109.35 27.544 109.448 27.2873 109.448 26.97V26.62C109.448 26.48 109.518 26.41 109.658 26.41H110.428C110.568 26.41 110.638 26.48 110.638 26.62V26.97C110.638 27.67 110.447 28.2067 110.064 28.58C109.691 28.9533 109.136 29.14 108.398 29.14H106.788C106.051 29.14 105.491 28.9533 105.108 28.58C104.735 28.2067 104.548 27.67 104.548 26.97V23.89C104.548 23.19 104.735 22.6533 105.108 22.28C105.491 21.9067 106.051 21.72 106.788 21.72H108.398C109.136 21.72 109.691 21.9067 110.064 22.28C110.447 22.6533 110.638 23.19 110.638 23.89V24.24C110.638 24.38 110.568 24.45 110.428 24.45H109.658C109.518 24.45 109.448 24.38 109.448 24.24V23.89C109.448 23.5727 109.35 23.3207 109.154 23.134C108.968 22.938 108.716 22.84 108.398 22.84H106.788C106.471 22.84 106.214 22.938 106.018 23.134C105.832 23.3207 105.738 23.5727 105.738 23.89V26.97ZM114.074 27.11C113.934 27.81 113.696 28.3233 113.36 28.65C113.024 28.9767 112.539 29.14 111.904 29.14H111.694C111.554 29.14 111.484 29.07 111.484 28.93V28.23C111.484 28.09 111.554 28.02 111.694 28.02H111.904C112.147 28.02 112.352 27.9407 112.52 27.782C112.698 27.6233 112.819 27.3993 112.884 27.11L113.934 22.07C113.962 21.93 114.079 21.86 114.284 21.86H118.204C118.344 21.86 118.414 21.93 118.414 22.07V28.79C118.414 28.93 118.344 29 118.204 29H117.434C117.294 29 117.224 28.93 117.224 28.79V22.98H114.914L114.074 27.11ZM125.095 22.07C125.123 21.9953 125.16 21.944 125.207 21.916C125.263 21.8787 125.342 21.86 125.445 21.86H126.285C126.434 21.86 126.481 21.93 126.425 22.07L123.695 29C123.499 29.4947 123.308 29.91 123.121 30.246C122.934 30.582 122.734 30.8527 122.519 31.058C122.304 31.2727 122.071 31.4267 121.819 31.52C121.567 31.6133 121.282 31.66 120.965 31.66H120.685C120.545 31.66 120.475 31.59 120.475 31.45V30.75C120.475 30.61 120.545 30.54 120.685 30.54H120.965C121.32 30.54 121.609 30.4233 121.833 30.19C122.066 29.9567 122.29 29.56 122.505 29L119.775 22.07C119.719 21.93 119.766 21.86 119.915 21.86H120.755C120.858 21.86 120.932 21.8787 120.979 21.916C121.035 21.944 121.077 21.9953 121.105 22.07L123.065 27.32H123.135L125.095 22.07ZM127.99 29C127.85 29 127.78 28.93 127.78 28.79V22.07C127.78 21.93 127.85 21.86 127.99 21.86H132.61C132.75 21.86 132.82 21.93 132.82 22.07V22.77C132.82 22.91 132.75 22.98 132.61 22.98H128.97V28.79C128.97 28.93 128.9 29 128.76 29H127.99ZM139.826 21.86C139.966 21.86 140.036 21.93 140.036 22.07V28.79C140.036 28.93 139.966 29 139.826 29H139.056C138.916 29 138.846 28.93 138.846 28.79V23.68H138.776L135.416 28.79C135.37 28.8647 135.323 28.9207 135.276 28.958C135.23 28.986 135.136 29 134.996 29H134.156C134.016 29 133.946 28.93 133.946 28.79V22.07C133.946 21.93 134.016 21.86 134.156 21.86H134.926C135.066 21.86 135.136 21.93 135.136 22.07V27.18H135.206L138.566 22.07C138.613 21.9953 138.66 21.944 138.706 21.916C138.753 21.8787 138.846 21.86 138.986 21.86H139.826Z" fill="#7E7E82"/>
<path d="M17.05 49.09L18.94 40.41C18.9587 40.3353 18.982 40.284 19.01 40.256C19.0473 40.2187 19.1173 40.2 19.22 40.2H24.19C24.33 40.2 24.4 40.27 24.4 40.41V49.09H25.31C25.45 49.09 25.52 49.16 25.52 49.3V51.68C25.52 51.82 25.45 51.89 25.31 51.89H24.82C24.68 51.89 24.61 51.82 24.61 51.68V50H16.91V51.68C16.91 51.82 16.84 51.89 16.7 51.89H16.21C16.07 51.89 16 51.82 16 51.68V49.3C16 49.16 16.07 49.09 16.21 49.09H17.05ZM23.49 49.09V41.11H19.71L17.96 49.09H23.49ZM32.3662 44.12L28.5862 49.79C28.5395 49.8647 28.4928 49.9207 28.4462 49.958C28.3995 49.986 28.3062 50 28.1662 50H27.6762C27.5362 50 27.4662 49.93 27.4662 49.79V43.07C27.4662 42.93 27.5362 42.86 27.6762 42.86H28.0962C28.2362 42.86 28.3062 42.93 28.3062 43.07V48.74H28.3762L32.1562 43.07C32.2028 42.9953 32.2495 42.944 32.2962 42.916C32.3428 42.8787 32.4362 42.86 32.5762 42.86H33.0662C33.2062 42.86 33.2762 42.93 33.2762 43.07V49.79C33.2762 49.93 33.2062 50 33.0662 50H32.6462C32.5062 50 32.4362 49.93 32.4362 49.79V44.12H32.3662ZM36.3456 48.04C36.3456 48.432 36.4576 48.74 36.6816 48.964C36.9056 49.188 37.2136 49.3 37.6056 49.3H38.7256C39.2203 49.3 39.6123 49.1553 39.9016 48.866C40.191 48.5767 40.3356 48.1847 40.3356 47.69V46.71H37.6056C37.2136 46.71 36.9056 46.822 36.6816 47.046C36.4576 47.27 36.3456 47.578 36.3456 47.97V48.04ZM35.5056 47.97C35.5056 47.298 35.6876 46.78 36.0516 46.416C36.4156 46.052 36.9336 45.87 37.6056 45.87H40.3356V44.89C40.3356 44.47 40.219 44.1433 39.9856 43.91C39.7523 43.6767 39.4256 43.56 39.0056 43.56H38.0956C37.6756 43.56 37.349 43.6767 37.1156 43.91C36.8823 44.1433 36.7656 44.47 36.7656 44.89C36.7656 45.03 36.6956 45.1 36.5556 45.1H36.1356C35.9956 45.1 35.9256 45.03 35.9256 44.89C35.9256 44.19 36.1123 43.6533 36.4856 43.28C36.859 42.9067 37.3956 42.72 38.0956 42.72H39.0056C39.7056 42.72 40.2423 42.9067 40.6156 43.28C40.989 43.6533 41.1756 44.19 41.1756 44.89V49.79C41.1756 49.93 41.1056 50 40.9656 50H40.5456C40.4056 50 40.3356 49.93 40.3356 49.79V49.23H40.2656C40.1723 49.4073 40.0556 49.5613 39.9156 49.692C39.785 49.804 39.6216 49.9067 39.4256 50C39.239 50.0933 39.0056 50.14 38.7256 50.14H37.6056C36.9336 50.14 36.4156 49.958 36.0516 49.594C35.6876 49.23 35.5056 48.712 35.5056 48.04V47.97ZM48.4429 42.86C48.5829 42.86 48.6529 42.93 48.6529 43.07V43.49C48.6529 43.63 48.5829 43.7 48.4429 43.7H44.5929V49.79C44.5929 49.93 44.5229 50 44.3829 50H43.9629C43.8229 50 43.7529 49.93 43.7529 49.79V43.07C43.7529 42.93 43.8229 42.86 43.9629 42.86H48.4429ZM55.4969 42.86C55.6369 42.86 55.7069 42.93 55.7069 43.07V49.79C55.7069 49.93 55.6369 50 55.4969 50H55.0769C54.9369 50 54.8669 49.93 54.8669 49.79V46.78H50.8769V49.79C50.8769 49.93 50.8069 50 50.6669 50H50.2469C50.1069 50 50.0369 49.93 50.0369 49.79V43.07C50.0369 42.93 50.1069 42.86 50.2469 42.86H50.6669C50.8069 42.86 50.8769 42.93 50.8769 43.07V45.94H54.8669V43.07C54.8669 42.93 54.9369 42.86 55.0769 42.86H55.4969ZM63.3296 44.89C63.3296 44.47 63.2129 44.1433 62.9796 43.91C62.7463 43.6767 62.4196 43.56 61.9996 43.56H60.3196C59.8996 43.56 59.5729 43.6767 59.3396 43.91C59.1063 44.1433 58.9896 44.47 58.9896 44.89V47.97C58.9896 48.39 59.1063 48.7167 59.3396 48.95C59.5729 49.1833 59.8996 49.3 60.3196 49.3H61.9996C62.4196 49.3 62.7463 49.1833 62.9796 48.95C63.2129 48.7167 63.3296 48.39 63.3296 47.97V44.89ZM64.1696 47.97C64.1696 48.67 63.9829 49.2067 63.6096 49.58C63.2363 49.9533 62.6996 50.14 61.9996 50.14H60.3196C59.6196 50.14 59.0829 49.9533 58.7096 49.58C58.3363 49.2067 58.1496 48.67 58.1496 47.97V44.89C58.1496 44.19 58.3363 43.6533 58.7096 43.28C59.0829 42.9067 59.6196 42.72 60.3196 42.72H61.9996C62.6996 42.72 63.2363 42.9067 63.6096 43.28C63.9829 43.6533 64.1696 44.19 64.1696 44.89V47.97ZM72.3507 47.97C72.3507 48.67 72.164 49.2067 71.7907 49.58C71.4174 49.9533 70.8807 50.14 70.1807 50.14H68.6407C67.9407 50.14 67.404 49.9533 67.0307 49.58C66.6574 49.2067 66.4707 48.67 66.4707 47.97V44.89C66.4707 44.19 66.6574 43.6533 67.0307 43.28C67.404 42.9067 67.9407 42.72 68.6407 42.72H70.1807C70.8807 42.72 71.4174 42.9067 71.7907 43.28C72.164 43.6533 72.3507 44.19 72.3507 44.89V45.1C72.3507 45.24 72.2807 45.31 72.1407 45.31H71.7207C71.5807 45.31 71.5107 45.24 71.5107 45.1V44.89C71.5107 44.47 71.394 44.1433 71.1607 43.91C70.9274 43.6767 70.6007 43.56 70.1807 43.56H68.6407C68.2207 43.56 67.894 43.6767 67.6607 43.91C67.4274 44.1433 67.3107 44.47 67.3107 44.89V47.97C67.3107 48.39 67.4274 48.7167 67.6607 48.95C67.894 49.1833 68.2207 49.3 68.6407 49.3H70.1807C70.6007 49.3 70.9274 49.1833 71.1607 48.95C71.394 48.7167 71.5107 48.39 71.5107 47.97V47.76C71.5107 47.62 71.5807 47.55 71.7207 47.55H72.1407C72.2807 47.55 72.3507 47.62 72.3507 47.76V47.97ZM79.1247 42.86C79.2647 42.86 79.3347 42.93 79.3347 43.07V43.49C79.3347 43.63 79.2647 43.7 79.1247 43.7H76.8847V49.79C76.8847 49.93 76.8147 50 76.6747 50H76.2547C76.1147 50 76.0447 49.93 76.0447 49.79V43.7H73.8047C73.6647 43.7 73.5947 43.63 73.5947 43.49V43.07C73.5947 42.93 73.6647 42.86 73.8047 42.86H79.1247ZM85.7603 44.12L81.9803 49.79C81.9336 49.8647 81.887 49.9207 81.8403 49.958C81.7936 49.986 81.7003 50 81.5603 50H81.0703C80.9303 50 80.8603 49.93 80.8603 49.79V43.07C80.8603 42.93 80.9303 42.86 81.0703 42.86H81.4903C81.6303 42.86 81.7003 42.93 81.7003 43.07V48.74H81.7703L85.5503 43.07C85.597 42.9953 85.6436 42.944 85.6903 42.916C85.737 42.8787 85.8303 42.86 85.9703 42.86H86.4603C86.6003 42.86 86.6703 42.93 86.6703 43.07V49.79C86.6703 49.93 86.6003 50 86.4603 50H86.0403C85.9003 50 85.8303 49.93 85.8303 49.79V44.12H85.7603ZM90.0898 46.64V49.79C90.0898 49.93 90.0198 50 89.8798 50H89.4598C89.3198 50 89.2498 49.93 89.2498 49.79V43.07C89.2498 42.93 89.3198 42.86 89.4598 42.86H89.8798C90.0198 42.86 90.0898 42.93 90.0898 43.07V45.8H92.1898L93.6598 43.07C93.7064 42.9953 93.7438 42.944 93.7718 42.916C93.8091 42.8787 93.8651 42.86 93.9398 42.86H94.4998C94.6584 42.86 94.7051 42.93 94.6398 43.07L92.8898 46.22L94.8498 49.79C94.9151 49.93 94.8684 50 94.7098 50H94.1498C94.0751 50 94.0191 49.986 93.9818 49.958C93.9538 49.9207 93.9164 49.8647 93.8698 49.79L92.1898 46.64H90.0898ZM97.0355 48.04C97.0355 48.432 97.1475 48.74 97.3715 48.964C97.5955 49.188 97.9035 49.3 98.2955 49.3H99.4155C99.9101 49.3 100.302 49.1553 100.591 48.866C100.881 48.5767 101.025 48.1847 101.025 47.69V46.71H98.2955C97.9035 46.71 97.5955 46.822 97.3715 47.046C97.1475 47.27 97.0355 47.578 97.0355 47.97V48.04ZM96.1955 47.97C96.1955 47.298 96.3775 46.78 96.7415 46.416C97.1055 46.052 97.6235 45.87 98.2955 45.87H101.025V44.89C101.025 44.47 100.909 44.1433 100.675 43.91C100.442 43.6767 100.115 43.56 99.6955 43.56H98.7855C98.3655 43.56 98.0388 43.6767 97.8055 43.91C97.5721 44.1433 97.4555 44.47 97.4555 44.89C97.4555 45.03 97.3855 45.1 97.2455 45.1H96.8255C96.6855 45.1 96.6155 45.03 96.6155 44.89C96.6155 44.19 96.8021 43.6533 97.1755 43.28C97.5488 42.9067 98.0855 42.72 98.7855 42.72H99.6955C100.395 42.72 100.932 42.9067 101.305 43.28C101.679 43.6533 101.865 44.19 101.865 44.89V49.79C101.865 49.93 101.795 50 101.655 50H101.235C101.095 50 101.025 49.93 101.025 49.79V49.23H100.955C100.862 49.4073 100.745 49.5613 100.605 49.692C100.475 49.804 100.311 49.9067 100.115 50C99.9288 50.0933 99.6955 50.14 99.4155 50.14H98.2955C97.6235 50.14 97.1055 49.958 96.7415 49.594C96.3775 49.23 96.1955 48.712 96.1955 48.04V47.97Z" fill="#1B1C21"/>
<path opacity="0.721842" d="M17.61 101C17.47 101 17.4 100.93 17.4 100.79V91.41C17.4 91.27 17.47 91.2 17.61 91.2H18.52C18.66 91.2 18.73 91.27 18.73 91.41V99.74H23.63V91.41C23.63 91.27 23.7 91.2 23.84 91.2H24.75C24.89 91.2 24.96 91.27 24.96 91.41V99.95L26.36 101.49C26.3973 101.527 26.416 101.574 26.416 101.63C26.416 101.686 26.3973 101.733 26.36 101.77L25.66 102.4C25.5573 102.484 25.464 102.484 25.38 102.4L24.12 101H17.61ZM32.5047 96.8V95.89C32.5047 95.5727 32.4067 95.3207 32.2107 95.134C32.024 94.938 31.772 94.84 31.4547 94.84H29.7747C29.4574 94.84 29.2007 94.938 29.0047 95.134C28.818 95.3207 28.7247 95.5727 28.7247 95.89V96.8H32.5047ZM28.7247 97.92V98.97C28.7247 99.2873 28.818 99.544 29.0047 99.74C29.2007 99.9267 29.4574 100.02 29.7747 100.02H31.4547C31.772 100.02 32.024 99.9267 32.2107 99.74C32.4067 99.544 32.5047 99.2873 32.5047 98.97V98.9C32.5047 98.76 32.5747 98.69 32.7147 98.69H33.4847C33.6247 98.69 33.6947 98.76 33.6947 98.9V98.97C33.6947 99.67 33.5034 100.207 33.1207 100.58C32.7474 100.953 32.192 101.14 31.4547 101.14H29.7747C29.0374 101.14 28.4774 100.953 28.0947 100.58C27.7214 100.207 27.5347 99.67 27.5347 98.97V95.89C27.5347 95.19 27.7214 94.6533 28.0947 94.28C28.4774 93.9067 29.0374 93.72 29.7747 93.72H31.4547C32.192 93.72 32.7474 93.9067 33.1207 94.28C33.5034 94.6533 33.6947 95.19 33.6947 95.89V97.71C33.6947 97.85 33.6247 97.92 33.4847 97.92H28.7247ZM36.9858 97.92V100.79C36.9858 100.93 36.9158 101 36.7758 101H36.0058C35.8658 101 35.7958 100.93 35.7958 100.79V94.07C35.7958 93.93 35.8658 93.86 36.0058 93.86H36.7758C36.9158 93.86 36.9858 93.93 36.9858 94.07V96.87H40.5558V94.07C40.5558 93.93 40.6258 93.86 40.7658 93.86H41.5358C41.6758 93.86 41.7458 93.93 41.7458 94.07V100.79C41.7458 100.93 41.6758 101 41.5358 101H40.7658C40.6258 101 40.5558 100.93 40.5558 100.79V97.92H36.9858ZM43.7052 98.83C43.7052 97.4767 44.4052 96.8 45.8052 96.8H48.3952V95.89C48.3952 95.5727 48.2972 95.3207 48.1012 95.134C47.9146 94.938 47.6626 94.84 47.3452 94.84H46.3652C46.0479 94.84 45.7912 94.938 45.5952 95.134C45.4086 95.3207 45.3152 95.5727 45.3152 95.89C45.3152 96.03 45.2452 96.1 45.1052 96.1H44.3352C44.1952 96.1 44.1252 96.03 44.1252 95.89C44.1252 95.19 44.3119 94.6533 44.6852 94.28C45.0679 93.9067 45.6279 93.72 46.3652 93.72H47.3452C48.0826 93.72 48.6379 93.9067 49.0112 94.28C49.3939 94.6533 49.5852 95.19 49.5852 95.89V100.79C49.5852 100.93 49.5152 101 49.3752 101H48.6052C48.4652 101 48.3952 100.93 48.3952 100.79V100.3H48.3252C48.2506 100.459 48.1432 100.599 48.0032 100.72C47.8819 100.823 47.7232 100.916 47.5272 101C47.3312 101.093 47.0839 101.14 46.7852 101.14H45.8052C44.4052 101.14 43.7052 100.463 43.7052 99.11V98.83ZM44.8952 99.11C44.8952 99.39 44.9746 99.614 45.1332 99.782C45.3012 99.9407 45.5252 100.02 45.8052 100.02H46.9252C47.3452 100.02 47.6952 99.88 47.9752 99.6C48.2552 99.32 48.3952 98.97 48.3952 98.55V97.92H45.8052C45.5252 97.92 45.3012 98.004 45.1332 98.172C44.9746 98.3307 44.8952 98.55 44.8952 98.83V99.11Z" fill="#7E7E82"/>
<path d="M17.68 122C17.54 122 17.47 121.93 17.47 121.79V112.41C17.47 112.27 17.54 112.2 17.68 112.2H24.19C24.33 112.2 24.4 112.27 24.4 112.41V112.9C24.4 113.04 24.33 113.11 24.19 113.11H18.38V115.98H22.65C23.4247 115.98 24.0267 116.195 24.456 116.624C24.8853 117.053 25.1 117.655 25.1 118.43V119.55C25.1 120.325 24.8853 120.927 24.456 121.356C24.0267 121.785 23.4247 122 22.65 122H17.68ZM22.65 121.09C23.1447 121.09 23.5227 120.959 23.784 120.698C24.0547 120.427 24.19 120.045 24.19 119.55V118.43C24.19 117.935 24.0547 117.557 23.784 117.296C23.5227 117.025 23.1447 116.89 22.65 116.89H18.38V121.09H22.65ZM33.3566 119.97C33.3566 120.67 33.1699 121.207 32.7966 121.58C32.4232 121.953 31.8866 122.14 31.1866 122.14H29.6466C28.9466 122.14 28.4099 121.953 28.0366 121.58C27.6632 121.207 27.4766 120.67 27.4766 119.97V116.89C27.4766 116.19 27.6632 115.653 28.0366 115.28C28.4099 114.907 28.9466 114.72 29.6466 114.72H31.1866C31.8866 114.72 32.4232 114.907 32.7966 115.28C33.1699 115.653 33.3566 116.19 33.3566 116.89V118.57C33.3566 118.71 33.2866 118.78 33.1466 118.78H28.3166V119.97C28.3166 120.39 28.4332 120.717 28.6666 120.95C28.8999 121.183 29.2266 121.3 29.6466 121.3H31.1866C31.6066 121.3 31.9332 121.183 32.1666 120.95C32.3999 120.717 32.5166 120.39 32.5166 119.97C32.5166 119.83 32.5866 119.76 32.7266 119.76H33.1466C33.2866 119.76 33.3566 119.83 33.3566 119.97ZM28.3166 117.94H32.5166V116.89C32.5166 116.47 32.3999 116.143 32.1666 115.91C31.9332 115.677 31.6066 115.56 31.1866 115.56H29.6466C29.2266 115.56 28.8999 115.677 28.6666 115.91C28.4332 116.143 28.3166 116.47 28.3166 116.89V117.94ZM41.5409 119.97C41.5409 120.67 41.3543 121.207 40.9809 121.58C40.6076 121.953 40.0709 122.14 39.3709 122.14H37.8309C37.1309 122.14 36.5943 121.953 36.2209 121.58C35.8476 121.207 35.6609 120.67 35.6609 119.97V116.89C35.6609 116.19 35.8476 115.653 36.2209 115.28C36.5943 114.907 37.1309 114.72 37.8309 114.72H39.3709C40.0709 114.72 40.6076 114.907 40.9809 115.28C41.3543 115.653 41.5409 116.19 41.5409 116.89V117.1C41.5409 117.24 41.4709 117.31 41.3309 117.31H40.9109C40.7709 117.31 40.7009 117.24 40.7009 117.1V116.89C40.7009 116.47 40.5843 116.143 40.3509 115.91C40.1176 115.677 39.7909 115.56 39.3709 115.56H37.8309C37.4109 115.56 37.0843 115.677 36.8509 115.91C36.6176 116.143 36.5009 116.47 36.5009 116.89V119.97C36.5009 120.39 36.6176 120.717 36.8509 120.95C37.0843 121.183 37.4109 121.3 37.8309 121.3H39.3709C39.7909 121.3 40.1176 121.183 40.3509 120.95C40.5843 120.717 40.7009 120.39 40.7009 119.97V119.76C40.7009 119.62 40.7709 119.55 40.9109 119.55H41.3309C41.4709 119.55 41.5409 119.62 41.5409 119.76V119.97ZM49.2949 114.86C49.4349 114.86 49.5049 114.93 49.5049 115.07V121.79C49.5049 121.93 49.4349 122 49.2949 122H48.8749C48.7349 122 48.6649 121.93 48.6649 121.79V115.7H44.6749V121.79C44.6749 121.93 44.6049 122 44.4649 122H44.0449C43.9049 122 43.8349 121.93 43.8349 121.79V115.07C43.8349 114.93 43.9049 114.86 44.0449 114.86H49.2949ZM53.2077 120.25C53.077 120.922 52.8623 121.407 52.5637 121.706C52.265 121.995 51.8497 122.14 51.3177 122.14H51.1077C50.9677 122.14 50.8977 122.07 50.8977 121.93V121.51C50.8977 121.37 50.9677 121.3 51.1077 121.3H51.3177C51.8777 121.3 52.2277 120.95 52.3677 120.25L53.4177 115.07C53.4457 114.93 53.539 114.86 53.6977 114.86H57.4777C57.6177 114.86 57.6877 114.93 57.6877 115.07V121.79C57.6877 121.93 57.6177 122 57.4777 122H57.0577C56.9177 122 56.8477 121.93 56.8477 121.79V115.7H54.1177L53.2077 120.25ZM60.762 120.04C60.762 120.432 60.874 120.74 61.098 120.964C61.322 121.188 61.63 121.3 62.022 121.3H63.142C63.6367 121.3 64.0287 121.155 64.318 120.866C64.6074 120.577 64.752 120.185 64.752 119.69V118.71H62.022C61.63 118.71 61.322 118.822 61.098 119.046C60.874 119.27 60.762 119.578 60.762 119.97V120.04ZM59.922 119.97C59.922 119.298 60.104 118.78 60.468 118.416C60.832 118.052 61.35 117.87 62.022 117.87H64.752V116.89C64.752 116.47 64.6354 116.143 64.402 115.91C64.1687 115.677 63.842 115.56 63.422 115.56H62.512C62.092 115.56 61.7654 115.677 61.532 115.91C61.2987 116.143 61.182 116.47 61.182 116.89C61.182 117.03 61.112 117.1 60.972 117.1H60.552C60.412 117.1 60.342 117.03 60.342 116.89C60.342 116.19 60.5287 115.653 60.902 115.28C61.2754 114.907 61.812 114.72 62.512 114.72H63.422C64.122 114.72 64.6587 114.907 65.032 115.28C65.4054 115.653 65.592 116.19 65.592 116.89V121.79C65.592 121.93 65.522 122 65.382 122H64.962C64.822 122 64.752 121.93 64.752 121.79V121.23H64.682C64.5887 121.407 64.472 121.561 64.332 121.692C64.2014 121.804 64.038 121.907 63.842 122C63.6554 122.093 63.422 122.14 63.142 122.14H62.022C61.35 122.14 60.832 121.958 60.468 121.594C60.104 121.23 59.922 120.712 59.922 120.04V119.97ZM72.6493 114.86C72.7893 114.86 72.8593 114.93 72.8593 115.07V115.49C72.8593 115.63 72.7893 115.7 72.6493 115.7H70.4093V121.79C70.4093 121.93 70.3393 122 70.1993 122H69.7793C69.6393 122 69.5693 121.93 69.5693 121.79V115.7H67.3293C67.1893 115.7 67.1193 115.63 67.1193 115.49V115.07C67.1193 114.93 67.1893 114.86 67.3293 114.86H72.6493ZM79.8449 114.86C79.9849 114.86 80.0549 114.93 80.0549 115.07V121.79C80.0549 121.93 79.9849 122 79.8449 122H79.4249C79.2849 122 79.2149 121.93 79.2149 121.79V118.78H75.2249V121.79C75.2249 121.93 75.1549 122 75.0149 122H74.5949C74.4549 122 74.3849 121.93 74.3849 121.79V115.07C74.3849 114.93 74.4549 114.86 74.5949 114.86H75.0149C75.1549 114.86 75.2249 114.93 75.2249 115.07V117.94H79.2149V115.07C79.2149 114.93 79.2849 114.86 79.4249 114.86H79.8449ZM87.6777 116.89C87.6777 116.47 87.561 116.143 87.3277 115.91C87.0943 115.677 86.7677 115.56 86.3477 115.56H84.6677C84.2477 115.56 83.921 115.677 83.6877 115.91C83.4543 116.143 83.3377 116.47 83.3377 116.89V119.97C83.3377 120.39 83.4543 120.717 83.6877 120.95C83.921 121.183 84.2477 121.3 84.6677 121.3H86.3477C86.7677 121.3 87.0943 121.183 87.3277 120.95C87.561 120.717 87.6777 120.39 87.6777 119.97V116.89ZM88.5177 119.97C88.5177 120.67 88.331 121.207 87.9577 121.58C87.5843 121.953 87.0477 122.14 86.3477 122.14H84.6677C83.9677 122.14 83.431 121.953 83.0577 121.58C82.6843 121.207 82.4977 120.67 82.4977 119.97V116.89C82.4977 116.19 82.6843 115.653 83.0577 115.28C83.431 114.907 83.9677 114.72 84.6677 114.72H86.3477C87.0477 114.72 87.5843 114.907 87.9577 115.28C88.331 115.653 88.5177 116.19 88.5177 116.89V119.97Z" fill="#1B1C21"/>
</svg>
