<svg width="260" height="200" viewBox="0 0 260 200" fill="none" xmlns="http://www.w3.org/2000/svg">
<rect width="260" height="200" rx="6" fill="white"/>
<path d="M125 168C125 159.163 132.163 152 141 152H228C236.837 152 244 159.163 244 168C244 176.837 236.837 184 228 184H141C132.163 184 125 176.837 125 168Z" fill="#FF3E79"/>
<path d="M145.003 166.24C145.003 166.528 144.947 166.76 144.835 166.936C144.723 167.104 144.599 167.236 144.463 167.332C144.303 167.444 144.123 167.52 143.923 167.56V167.68C144.147 167.728 144.347 167.816 144.523 167.944C144.675 168.056 144.811 168.216 144.931 168.424C145.059 168.624 145.123 168.896 145.123 169.24V170.02C145.123 171.42 144.423 172.12 143.023 172.12H139.723C138.323 172.12 137.623 171.42 137.623 170.02V169.42C137.623 169.22 137.723 169.12 137.923 169.12H139.243C139.443 169.12 139.543 169.22 139.543 169.42V169.78C139.543 170.22 139.763 170.44 140.203 170.44H142.543C142.983 170.44 143.203 170.22 143.203 169.78V169.24C143.203 168.8 142.983 168.58 142.543 168.58H140.803C140.603 168.58 140.503 168.48 140.503 168.28V167.2C140.503 167 140.603 166.9 140.803 166.9H142.423C142.863 166.9 143.083 166.68 143.083 166.24V165.82C143.083 165.38 142.863 165.16 142.423 165.16H140.323C139.883 165.16 139.663 165.38 139.663 165.82V166.18C139.663 166.38 139.563 166.48 139.363 166.48H138.043C137.843 166.48 137.743 166.38 137.743 166.18V165.58C137.743 164.18 138.443 163.48 139.843 163.48H142.903C144.303 163.48 145.003 164.18 145.003 165.58V166.24ZM148.493 170.26L147.953 171.7C147.913 171.788 147.861 171.86 147.797 171.916C147.741 171.972 147.653 172 147.533 172H146.033C145.833 172 145.773 171.9 145.853 171.7L148.793 163.9C148.873 163.7 149.033 163.6 149.273 163.6H151.013C151.133 163.6 151.221 163.628 151.277 163.684C151.341 163.74 151.393 163.812 151.433 163.9L154.373 171.7C154.453 171.9 154.393 172 154.193 172H152.693C152.573 172 152.481 171.972 152.417 171.916C152.361 171.86 152.313 171.788 152.273 171.7L151.733 170.26H148.493ZM151.133 168.58L150.173 166H150.053L149.093 168.58H151.133ZM157.263 166.78H158.883L160.443 163.9C160.491 163.812 160.551 163.74 160.623 163.684C160.703 163.628 160.803 163.6 160.923 163.6H162.423C162.511 163.6 162.575 163.628 162.615 163.684C162.655 163.74 162.651 163.812 162.603 163.9L160.563 167.56L162.843 171.7C162.891 171.788 162.895 171.86 162.855 171.916C162.815 171.972 162.751 172 162.663 172H161.163C161.043 172 160.943 171.972 160.863 171.916C160.791 171.86 160.731 171.788 160.683 171.7L158.943 168.46H157.263V171.7C157.263 171.9 157.163 172 156.963 172H155.643C155.443 172 155.343 171.9 155.343 171.7V163.9C155.343 163.7 155.443 163.6 155.643 163.6H156.963C157.163 163.6 157.263 163.7 157.263 163.9V166.78ZM165.654 170.26L165.114 171.7C165.074 171.788 165.022 171.86 164.958 171.916C164.902 171.972 164.814 172 164.694 172H163.194C162.994 172 162.934 171.9 163.014 171.7L165.954 163.9C166.034 163.7 166.194 163.6 166.434 163.6H168.174C168.294 163.6 168.382 163.628 168.438 163.684C168.502 163.74 168.554 163.812 168.594 163.9L171.534 171.7C171.614 171.9 171.554 172 171.354 172H169.854C169.734 172 169.642 171.972 169.578 171.916C169.522 171.86 169.474 171.788 169.434 171.7L168.894 170.26H165.654ZM168.294 168.58L167.334 166H167.214L166.254 168.58H168.294ZM179.524 166.24C179.524 166.528 179.468 166.76 179.356 166.936C179.244 167.104 179.12 167.236 178.984 167.332C178.824 167.444 178.644 167.52 178.444 167.56V167.68C178.668 167.728 178.868 167.816 179.044 167.944C179.196 168.056 179.332 168.216 179.452 168.424C179.58 168.624 179.644 168.896 179.644 169.24V170.02C179.644 171.42 178.944 172.12 177.544 172.12H174.244C172.844 172.12 172.144 171.42 172.144 170.02V169.42C172.144 169.22 172.244 169.12 172.444 169.12H173.764C173.964 169.12 174.064 169.22 174.064 169.42V169.78C174.064 170.22 174.284 170.44 174.724 170.44H177.064C177.504 170.44 177.724 170.22 177.724 169.78V169.24C177.724 168.8 177.504 168.58 177.064 168.58H175.324C175.124 168.58 175.024 168.48 175.024 168.28V167.2C175.024 167 175.124 166.9 175.324 166.9H176.944C177.384 166.9 177.604 166.68 177.604 166.24V165.82C177.604 165.38 177.384 165.16 176.944 165.16H174.844C174.404 165.16 174.184 165.38 174.184 165.82V166.18C174.184 166.38 174.084 166.48 173.884 166.48H172.564C172.364 166.48 172.264 166.38 172.264 166.18V165.58C172.264 164.18 172.964 163.48 174.364 163.48H177.424C178.824 163.48 179.524 164.18 179.524 165.58V166.24ZM183.014 170.26L182.474 171.7C182.434 171.788 182.382 171.86 182.318 171.916C182.262 171.972 182.174 172 182.054 172H180.554C180.354 172 180.294 171.9 180.374 171.7L183.314 163.9C183.394 163.7 183.554 163.6 183.794 163.6H185.534C185.654 163.6 185.742 163.628 185.798 163.684C185.862 163.74 185.914 163.812 185.954 163.9L188.894 171.7C188.974 171.9 188.914 172 188.714 172H187.214C187.094 172 187.002 171.972 186.938 171.916C186.882 171.86 186.834 171.788 186.794 171.7L186.254 170.26H183.014ZM185.654 168.58L184.694 166H184.574L183.614 168.58H185.654ZM192.449 171.7C192.449 171.9 192.349 172 192.149 172H190.829C190.629 172 190.529 171.9 190.529 171.7V165.28H188.129C187.929 165.28 187.829 165.18 187.829 164.98V163.9C187.829 163.7 187.929 163.6 188.129 163.6H194.849C195.049 163.6 195.149 163.7 195.149 163.9V164.98C195.149 165.18 195.049 165.28 194.849 165.28H192.449V171.7ZM201.177 166.12C202.577 166.12 203.277 166.82 203.277 168.22V169.9C203.277 171.3 202.577 172 201.177 172H196.377C196.177 172 196.077 171.9 196.077 171.7V163.9C196.077 163.7 196.177 163.6 196.377 163.6H197.697C197.897 163.6 197.997 163.7 197.997 163.9V166.12H201.177ZM200.697 170.32C201.137 170.32 201.357 170.1 201.357 169.66V168.46C201.357 168.02 201.137 167.8 200.697 167.8H197.997V170.32H200.697Z" fill="white"/>
<rect x="212" y="156" width="24" height="24" rx="12" fill="#FF3E79"/>
<path fill-rule="evenodd" clip-rule="evenodd" d="M224.8 168L221.792 165.229C221.364 164.835 221.361 164.161 221.785 163.764L221.92 163.637C222.303 163.278 222.899 163.276 223.284 163.633L227.938 167.943C227.971 167.974 227.971 168.026 227.938 168.057L223.347 172.309C222.926 172.698 222.276 172.696 221.858 172.304C221.394 171.87 221.398 171.134 221.865 170.704L224.8 168Z" fill="white"/>
<path d="M19.15 171.1C19.01 171.1 18.94 171.03 18.94 170.89V170.61C18.94 170.507 18.9587 170.433 18.996 170.386C19.0427 170.33 19.094 170.265 19.15 170.19L22.37 167.18V167.11H17.47C17.33 167.11 17.26 167.04 17.26 166.9V166.41C17.26 166.27 17.33 166.2 17.47 166.2H23.63C23.77 166.2 23.84 166.27 23.84 166.41V166.69C23.84 166.793 23.8167 166.872 23.77 166.928C23.7327 166.975 23.686 167.035 23.63 167.11L20.41 170.12V170.19H21.53C22.3047 170.19 22.9067 170.405 23.336 170.834C23.7653 171.263 23.98 171.865 23.98 172.64V173.69C23.98 174.465 23.7653 175.067 23.336 175.496C22.9067 175.925 22.3047 176.14 21.53 176.14H19.43C18.6553 176.14 18.0533 175.925 17.624 175.496C17.1947 175.067 16.98 174.465 16.98 173.69V173.27C16.98 173.13 17.05 173.06 17.19 173.06H17.68C17.82 173.06 17.89 173.13 17.89 173.27V173.69C17.89 174.185 18.0207 174.567 18.282 174.838C18.5527 175.099 18.9353 175.23 19.43 175.23H21.53C22.0247 175.23 22.4027 175.099 22.664 174.838C22.9347 174.567 23.07 174.185 23.07 173.69V172.64C23.07 172.145 22.9347 171.767 22.664 171.506C22.4027 171.235 22.0247 171.1 21.53 171.1H19.15ZM33.2155 168.51C33.2155 168.015 33.0801 167.637 32.8095 167.376C32.5481 167.105 32.1701 166.97 31.6755 166.97H29.0855C28.5908 166.97 28.2081 167.105 27.9375 167.376C27.6761 167.637 27.5455 168.015 27.5455 168.51V173.69C27.5455 174.185 27.6761 174.567 27.9375 174.838C28.2081 175.099 28.5908 175.23 29.0855 175.23H31.6755C32.1701 175.23 32.5481 175.099 32.8095 174.838C33.0801 174.567 33.2155 174.185 33.2155 173.69V168.51ZM34.1255 173.69C34.1255 174.465 33.9108 175.067 33.4815 175.496C33.0521 175.925 32.4501 176.14 31.6755 176.14H29.0855C28.3108 176.14 27.7088 175.925 27.2795 175.496C26.8501 175.067 26.6355 174.465 26.6355 173.69V168.51C26.6355 167.735 26.8501 167.133 27.2795 166.704C27.7088 166.275 28.3108 166.06 29.0855 166.06H31.6755C32.4501 166.06 33.0521 166.275 33.4815 166.704C33.9108 167.133 34.1255 167.735 34.1255 168.51V173.69ZM36.28 172.15C36.14 172.15 36.07 172.08 36.07 171.94V171.45C36.07 171.31 36.14 171.24 36.28 171.24H40.97C41.11 171.24 41.18 171.31 41.18 171.45V171.94C41.18 172.08 41.11 172.15 40.97 172.15H36.28ZM44.3873 167.11H42.2873C42.1473 167.11 42.0773 167.04 42.0773 166.9V166.41C42.0773 166.27 42.1473 166.2 42.2873 166.2H45.0873C45.2273 166.2 45.2973 166.27 45.2973 166.41V175.79C45.2973 175.93 45.2273 176 45.0873 176H44.5973C44.4573 176 44.3873 175.93 44.3873 175.79V167.11ZM49.4238 175.02V175.09H54.6738C54.8138 175.09 54.8838 175.16 54.8838 175.3V175.79C54.8838 175.93 54.8138 176 54.6738 176H48.2338C48.0938 176 48.0238 175.93 48.0238 175.79V175.37C48.0238 175.267 48.0425 175.193 48.0798 175.146C48.1265 175.09 48.1778 175.025 48.2338 174.95L53.0638 170.54C53.3438 170.288 53.5632 170.059 53.7218 169.854C53.8898 169.649 53.9738 169.387 53.9738 169.07V168.51C53.9738 168.015 53.8385 167.637 53.5678 167.376C53.3065 167.105 52.9285 166.97 52.4338 166.97H50.4738C49.9792 166.97 49.5965 167.105 49.3258 167.376C49.0645 167.637 48.9338 168.015 48.9338 168.51V168.93C48.9338 169.07 48.8638 169.14 48.7238 169.14H48.2338C48.0938 169.14 48.0238 169.07 48.0238 168.93V168.51C48.0238 167.735 48.2385 167.133 48.6678 166.704C49.0972 166.275 49.6992 166.06 50.4738 166.06H52.4338C53.2085 166.06 53.8105 166.275 54.2398 166.704C54.6692 167.133 54.8838 167.735 54.8838 168.51V169.07C54.8838 169.313 54.8512 169.532 54.7858 169.728C54.7205 169.924 54.6365 170.106 54.5338 170.274C54.4312 170.433 54.3098 170.582 54.1698 170.722C54.0392 170.853 53.9038 170.979 53.7638 171.1L49.4238 175.02ZM64.1893 168.51C64.1893 168.015 64.054 167.637 63.7833 167.376C63.522 167.105 63.144 166.97 62.6493 166.97H60.0593C59.5646 166.97 59.182 167.105 58.9113 167.376C58.65 167.637 58.5193 168.015 58.5193 168.51V173.69C58.5193 174.185 58.65 174.567 58.9113 174.838C59.182 175.099 59.5646 175.23 60.0593 175.23H62.6493C63.144 175.23 63.522 175.099 63.7833 174.838C64.054 174.567 64.1893 174.185 64.1893 173.69V168.51ZM65.0993 173.69C65.0993 174.465 64.8846 175.067 64.4553 175.496C64.026 175.925 63.424 176.14 62.6493 176.14H60.0593C59.2846 176.14 58.6826 175.925 58.2533 175.496C57.824 175.067 57.6093 174.465 57.6093 173.69V168.51C57.6093 167.735 57.824 167.133 58.2533 166.704C58.6826 166.275 59.2846 166.06 60.0593 166.06H62.6493C63.424 166.06 64.026 166.275 64.4553 166.704C64.8846 167.133 65.0993 167.735 65.0993 168.51V173.69ZM74.5982 176C74.4955 176 74.4209 175.986 74.3742 175.958C74.3275 175.921 74.2855 175.865 74.2482 175.79L71.6582 170.4H71.5882V175.79C71.5882 175.93 71.5182 176 71.3782 176H70.9582C70.8182 176 70.7482 175.93 70.7482 175.79V169.07C70.7482 168.93 70.8182 168.86 70.9582 168.86H71.5182C71.6209 168.86 71.6955 168.879 71.7422 168.916C71.7889 168.944 71.8309 168.995 71.8682 169.07L74.6682 174.88H74.7382L77.5382 169.07C77.5755 168.995 77.6175 168.944 77.6642 168.916C77.7109 168.879 77.7855 168.86 77.8882 168.86H78.4482C78.5882 168.86 78.6582 168.93 78.6582 169.07V175.79C78.6582 175.93 78.5882 176 78.4482 176H78.0282C77.8882 176 77.8182 175.93 77.8182 175.79V170.4H77.7482L75.1582 175.79C75.1209 175.865 75.0789 175.921 75.0322 175.958C74.9855 175.986 74.9109 176 74.8082 176H74.5982ZM86.1431 170.12L82.3631 175.79C82.3165 175.865 82.2698 175.921 82.2231 175.958C82.1765 175.986 82.0831 176 81.9431 176H81.4531C81.3131 176 81.2431 175.93 81.2431 175.79V169.07C81.2431 168.93 81.3131 168.86 81.4531 168.86H81.8731C82.0131 168.86 82.0831 168.93 82.0831 169.07V174.74H82.1531L85.9331 169.07C85.9798 168.995 86.0265 168.944 86.0731 168.916C86.1198 168.879 86.2131 168.86 86.3531 168.86H86.8431C86.9831 168.86 87.0531 168.93 87.0531 169.07V175.79C87.0531 175.93 86.9831 176 86.8431 176H86.4231C86.2831 176 86.2131 175.93 86.2131 175.79V170.12H86.1431ZM95.0926 168.86C95.2326 168.86 95.3026 168.93 95.3026 169.07V175.79C95.3026 175.93 95.2326 176 95.0926 176H94.6726C94.5326 176 94.4626 175.93 94.4626 175.79V172.78H90.4726V175.79C90.4726 175.93 90.4026 176 90.2626 176H89.8426C89.7026 176 89.6326 175.93 89.6326 175.79V169.07C89.6326 168.93 89.7026 168.86 89.8426 168.86H90.2626C90.4026 168.86 90.4726 168.93 90.4726 169.07V171.94H94.4626V169.07C94.4626 168.93 94.5326 168.86 94.6726 168.86H95.0926Z" fill="#1B1C21"/>
<path opacity="0.721842" d="M17.26 147.51C17.26 145.877 18.1 145.06 19.78 145.06H23C24.68 145.06 25.52 145.877 25.52 147.51V148.07C25.52 148.21 25.45 148.28 25.31 148.28H24.4C24.26 148.28 24.19 148.21 24.19 148.07V147.51C24.19 146.717 23.7933 146.32 23 146.32H19.78C18.9867 146.32 18.59 146.717 18.59 147.51V152.69C18.59 153.483 18.9867 153.88 19.78 153.88H23C23.7933 153.88 24.19 153.483 24.19 152.69V152.13C24.19 151.99 24.26 151.92 24.4 151.92H25.31C25.45 151.92 25.52 151.99 25.52 152.13V152.69C25.52 154.323 24.68 155.14 23 155.14H19.78C18.1 155.14 17.26 154.323 17.26 152.69V147.51ZM31.47 153.88C31.7873 153.88 32.0393 153.787 32.226 153.6C32.422 153.404 32.52 153.147 32.52 152.83V149.89C32.52 149.573 32.422 149.321 32.226 149.134C32.0393 148.938 31.7873 148.84 31.47 148.84H30.28C29.86 148.84 29.51 148.98 29.23 149.26C28.95 149.54 28.81 149.89 28.81 150.31V153.88H31.47ZM28.81 155V157.45C28.81 157.59 28.74 157.66 28.6 157.66H27.83C27.69 157.66 27.62 157.59 27.62 157.45V148.07C27.62 147.93 27.69 147.86 27.83 147.86H28.6C28.74 147.86 28.81 147.93 28.81 148.07V148.56H28.88C28.9547 148.401 29.062 148.261 29.202 148.14C29.3233 148.037 29.482 147.944 29.678 147.86C29.874 147.767 30.1213 147.72 30.42 147.72H31.47C32.2073 147.72 32.7627 147.907 33.136 148.28C33.5187 148.653 33.71 149.19 33.71 149.89V152.83C33.71 153.53 33.5187 154.067 33.136 154.44C32.7627 154.813 32.2073 155 31.47 155H28.81ZM40.7095 149.89C40.7095 149.573 40.6115 149.321 40.4155 149.134C40.2288 148.938 39.9768 148.84 39.6595 148.84H37.9095C37.5921 148.84 37.3355 148.938 37.1395 149.134C36.9528 149.321 36.8595 149.573 36.8595 149.89V152.97C36.8595 153.287 36.9528 153.544 37.1395 153.74C37.3355 153.927 37.5921 154.02 37.9095 154.02H39.6595C39.9768 154.02 40.2288 153.927 40.4155 153.74C40.6115 153.544 40.7095 153.287 40.7095 152.97V149.89ZM41.8995 152.97C41.8995 153.67 41.7081 154.207 41.3255 154.58C40.9521 154.953 40.3968 155.14 39.6595 155.14H37.9095C37.1721 155.14 36.6121 154.953 36.2295 154.58C35.8561 154.207 35.6695 153.67 35.6695 152.97V149.89C35.6695 149.19 35.8561 148.653 36.2295 148.28C36.6121 147.907 37.1721 147.72 37.9095 147.72H39.6595C40.3968 147.72 40.9521 147.907 41.3255 148.28C41.7081 148.653 41.8995 149.19 41.8995 149.89V152.97ZM46.9389 151.78H45.1889V154.79C45.1889 154.93 45.1189 155 44.9789 155H44.2089C44.0689 155 43.9989 154.93 43.9989 154.79V148.07C43.9989 147.93 44.0689 147.86 44.2089 147.86H44.9789C45.1189 147.86 45.1889 147.93 45.1889 148.07V150.66H46.9389L48.3389 148.07C48.3762 147.995 48.4182 147.944 48.4649 147.916C48.5116 147.879 48.5862 147.86 48.6889 147.86H49.5289C49.6876 147.86 49.7342 147.93 49.6689 148.07L47.9189 151.22L49.8789 154.79C49.9442 154.93 49.8976 155 49.7389 155H48.8989C48.7962 155 48.7216 154.986 48.6749 154.958C48.6282 154.921 48.5862 154.865 48.5489 154.79L46.9389 151.78Z" fill="#7E7E82"/>
<path opacity="0.721842" d="M22.72 24.66C23.5133 24.66 23.91 24.2633 23.91 23.47V21.65C23.91 20.8567 23.5133 20.46 22.72 20.46H18.73V24.66H22.72ZM18.73 25.92V28.79C18.73 28.93 18.66 29 18.52 29H17.61C17.47 29 17.4 28.93 17.4 28.79V19.41C17.4 19.27 17.47 19.2 17.61 19.2H22.72C24.4 19.2 25.24 20.0167 25.24 21.65V23.47C25.24 25.1033 24.4 25.92 22.72 25.92H18.73ZM32.1766 24.8V23.89C32.1766 23.5727 32.0786 23.3207 31.8826 23.134C31.6959 22.938 31.4439 22.84 31.1266 22.84H29.4466C29.1292 22.84 28.8726 22.938 28.6766 23.134C28.4899 23.3207 28.3966 23.5727 28.3966 23.89V24.8H32.1766ZM28.3966 25.92V26.97C28.3966 27.2873 28.4899 27.544 28.6766 27.74C28.8726 27.9267 29.1292 28.02 29.4466 28.02H31.1266C31.4439 28.02 31.6959 27.9267 31.8826 27.74C32.0786 27.544 32.1766 27.2873 32.1766 26.97V26.9C32.1766 26.76 32.2466 26.69 32.3866 26.69H33.1566C33.2966 26.69 33.3666 26.76 33.3666 26.9V26.97C33.3666 27.67 33.1752 28.2067 32.7926 28.58C32.4192 28.9533 31.8639 29.14 31.1266 29.14H29.4466C28.7092 29.14 28.1492 28.9533 27.7666 28.58C27.3932 28.2067 27.2066 27.67 27.2066 26.97V23.89C27.2066 23.19 27.3932 22.6533 27.7666 22.28C28.1492 21.9067 28.7092 21.72 29.4466 21.72H31.1266C31.8639 21.72 32.4192 21.9067 32.7926 22.28C33.1752 22.6533 33.3666 23.19 33.3666 23.89V25.71C33.3666 25.85 33.2966 25.92 33.1566 25.92H28.3966ZM39.5277 27.46L42.0477 22.07C42.085 21.9953 42.127 21.944 42.1737 21.916C42.2297 21.8787 42.3277 21.86 42.4677 21.86H43.3077C43.4477 21.86 43.5177 21.93 43.5177 22.07V28.79C43.5177 28.93 43.4477 29 43.3077 29H42.5377C42.3977 29 42.3277 28.93 42.3277 28.79V24.17H42.2577L40.0877 28.79C40.0503 28.8647 40.0037 28.9207 39.9477 28.958C39.901 28.986 39.8077 29 39.6677 29H39.3177C39.1777 29 39.0797 28.986 39.0237 28.958C38.977 28.9207 38.935 28.8647 38.8977 28.79L36.7277 24.17H36.6577V28.79C36.6577 28.93 36.5877 29 36.4477 29H35.6777C35.5377 29 35.4677 28.93 35.4677 28.79V22.07C35.4677 21.93 35.5377 21.86 35.6777 21.86H36.5177C36.6577 21.86 36.751 21.8787 36.7977 21.916C36.8537 21.944 36.9003 21.9953 36.9377 22.07L39.4577 27.46H39.5277ZM50.6626 23.89C50.6626 23.5727 50.5646 23.3207 50.3686 23.134C50.1819 22.938 49.9299 22.84 49.6126 22.84H47.8626C47.5452 22.84 47.2886 22.938 47.0926 23.134C46.9059 23.3207 46.8126 23.5727 46.8126 23.89V26.97C46.8126 27.2873 46.9059 27.544 47.0926 27.74C47.2886 27.9267 47.5452 28.02 47.8626 28.02H49.6126C49.9299 28.02 50.1819 27.9267 50.3686 27.74C50.5646 27.544 50.6626 27.2873 50.6626 26.97V23.89ZM51.8526 26.97C51.8526 27.67 51.6612 28.2067 51.2786 28.58C50.9052 28.9533 50.3499 29.14 49.6126 29.14H47.8626C47.1252 29.14 46.5652 28.9533 46.1826 28.58C45.8092 28.2067 45.6226 27.67 45.6226 26.97V23.89C45.6226 23.19 45.8092 22.6533 46.1826 22.28C46.5652 21.9067 47.1252 21.72 47.8626 21.72H49.6126C50.3499 21.72 50.9052 21.9067 51.2786 22.28C51.6612 22.6533 51.8526 23.19 51.8526 23.89V26.97ZM55.142 25.92V28.79C55.142 28.93 55.072 29 54.932 29H54.162C54.022 29 53.952 28.93 53.952 28.79V22.07C53.952 21.93 54.022 21.86 54.162 21.86H54.932C55.072 21.86 55.142 21.93 55.142 22.07V24.87H58.712V22.07C58.712 21.93 58.782 21.86 58.922 21.86H59.692C59.832 21.86 59.902 21.93 59.902 22.07V28.79C59.902 28.93 59.832 29 59.692 29H58.922C58.782 29 58.712 28.93 58.712 28.79V25.92H55.142ZM63.7515 29C63.6115 29 63.5415 28.93 63.5415 28.79V22.98H61.3715C61.2315 22.98 61.1615 22.91 61.1615 22.77V22.07C61.1615 21.93 61.2315 21.86 61.3715 21.86H66.9015C67.0415 21.86 67.1115 21.93 67.1115 22.07V22.77C67.1115 22.91 67.0415 22.98 66.9015 22.98H64.7315V28.79C64.7315 28.93 64.6615 29 64.5215 29H63.7515ZM69.5659 25.92V28.79C69.5659 28.93 69.4959 29 69.3559 29H68.5859C68.4459 29 68.3759 28.93 68.3759 28.79V22.07C68.3759 21.93 68.4459 21.86 68.5859 21.86H69.3559C69.4959 21.86 69.5659 21.93 69.5659 22.07V24.87H73.1359V22.07C73.1359 21.93 73.2059 21.86 73.3459 21.86H74.1159C74.2559 21.86 74.3259 21.93 74.3259 22.07V28.79C74.3259 28.93 74.2559 29 74.1159 29H73.3459C73.2059 29 73.1359 28.93 73.1359 28.79V25.92H69.5659ZM79.9253 27.88C80.2053 27.88 80.4246 27.8007 80.5833 27.642C80.7513 27.474 80.8353 27.25 80.8353 26.97V26.27C80.8353 25.99 80.7513 25.7707 80.5833 25.612C80.4246 25.444 80.2053 25.36 79.9253 25.36H77.7553V27.88H79.9253ZM76.7753 29C76.6353 29 76.5653 28.93 76.5653 28.79V22.07C76.5653 21.93 76.6353 21.86 76.7753 21.86H77.5453C77.6853 21.86 77.7553 21.93 77.7553 22.07V24.24H79.9253C81.3253 24.24 82.0253 24.9167 82.0253 26.27V26.97C82.0253 28.3233 81.3253 29 79.9253 29H76.7753ZM84.4053 28.79C84.4053 28.93 84.3353 29 84.1953 29H83.4253C83.2853 29 83.2153 28.93 83.2153 28.79V22.07C83.2153 21.93 83.2853 21.86 83.4253 21.86H84.1953C84.3353 21.86 84.4053 21.93 84.4053 22.07V28.79ZM91.4715 24.8V23.89C91.4715 23.5727 91.3735 23.3207 91.1775 23.134C90.9908 22.938 90.7388 22.84 90.4215 22.84H88.7415C88.4242 22.84 88.1675 22.938 87.9715 23.134C87.7848 23.3207 87.6915 23.5727 87.6915 23.89V24.8H91.4715ZM87.6915 25.92V26.97C87.6915 27.2873 87.7848 27.544 87.9715 27.74C88.1675 27.9267 88.4242 28.02 88.7415 28.02H90.4215C90.7388 28.02 90.9908 27.9267 91.1775 27.74C91.3735 27.544 91.4715 27.2873 91.4715 26.97V26.9C91.4715 26.76 91.5415 26.69 91.6815 26.69H92.4515C92.5915 26.69 92.6615 26.76 92.6615 26.9V26.97C92.6615 27.67 92.4702 28.2067 92.0875 28.58C91.7142 28.9533 91.1588 29.14 90.4215 29.14H88.7415C88.0042 29.14 87.4442 28.9533 87.0615 28.58C86.6882 28.2067 86.5015 27.67 86.5015 26.97V23.89C86.5015 23.19 86.6882 22.6533 87.0615 22.28C87.4442 21.9067 88.0042 21.72 88.7415 21.72H90.4215C91.1588 21.72 91.7142 21.9067 92.0875 22.28C92.4702 22.6533 92.6615 23.19 92.6615 23.89V25.71C92.6615 25.85 92.5915 25.92 92.4515 25.92H87.6915ZM102.003 22.07C102.031 21.9953 102.069 21.944 102.115 21.916C102.171 21.8787 102.251 21.86 102.353 21.86H103.193C103.343 21.86 103.389 21.93 103.333 22.07L100.603 29C100.407 29.4947 100.216 29.91 100.029 30.246C99.8426 30.582 99.642 30.8527 99.4273 31.058C99.2126 31.2727 98.9793 31.4267 98.7273 31.52C98.4753 31.6133 98.1906 31.66 97.8733 31.66H97.5933C97.4533 31.66 97.3833 31.59 97.3833 31.45V30.75C97.3833 30.61 97.4533 30.54 97.5933 30.54H97.8733C98.228 30.54 98.5173 30.4233 98.7413 30.19C98.9746 29.9567 99.1986 29.56 99.4133 29L96.6833 22.07C96.6273 21.93 96.674 21.86 96.8233 21.86H97.6633C97.766 21.86 97.8406 21.8787 97.8873 21.916C97.9433 21.944 97.9853 21.9953 98.0133 22.07L99.9733 27.32H100.043L102.003 22.07ZM105.738 26.97C105.738 27.2873 105.832 27.544 106.018 27.74C106.214 27.9267 106.471 28.02 106.788 28.02H108.398C108.716 28.02 108.968 27.9267 109.154 27.74C109.35 27.544 109.448 27.2873 109.448 26.97V26.62C109.448 26.48 109.518 26.41 109.658 26.41H110.428C110.568 26.41 110.638 26.48 110.638 26.62V26.97C110.638 27.67 110.447 28.2067 110.064 28.58C109.691 28.9533 109.136 29.14 108.398 29.14H106.788C106.051 29.14 105.491 28.9533 105.108 28.58C104.735 28.2067 104.548 27.67 104.548 26.97V23.89C104.548 23.19 104.735 22.6533 105.108 22.28C105.491 21.9067 106.051 21.72 106.788 21.72H108.398C109.136 21.72 109.691 21.9067 110.064 22.28C110.447 22.6533 110.638 23.19 110.638 23.89V24.24C110.638 24.38 110.568 24.45 110.428 24.45H109.658C109.518 24.45 109.448 24.38 109.448 24.24V23.89C109.448 23.5727 109.35 23.3207 109.154 23.134C108.968 22.938 108.716 22.84 108.398 22.84H106.788C106.471 22.84 106.214 22.938 106.018 23.134C105.832 23.3207 105.738 23.5727 105.738 23.89V26.97ZM114.074 27.11C113.934 27.81 113.696 28.3233 113.36 28.65C113.024 28.9767 112.539 29.14 111.904 29.14H111.694C111.554 29.14 111.484 29.07 111.484 28.93V28.23C111.484 28.09 111.554 28.02 111.694 28.02H111.904C112.147 28.02 112.352 27.9407 112.52 27.782C112.698 27.6233 112.819 27.3993 112.884 27.11L113.934 22.07C113.962 21.93 114.079 21.86 114.284 21.86H118.204C118.344 21.86 118.414 21.93 118.414 22.07V28.79C118.414 28.93 118.344 29 118.204 29H117.434C117.294 29 117.224 28.93 117.224 28.79V22.98H114.914L114.074 27.11ZM125.095 22.07C125.123 21.9953 125.16 21.944 125.207 21.916C125.263 21.8787 125.342 21.86 125.445 21.86H126.285C126.434 21.86 126.481 21.93 126.425 22.07L123.695 29C123.499 29.4947 123.308 29.91 123.121 30.246C122.934 30.582 122.734 30.8527 122.519 31.058C122.304 31.2727 122.071 31.4267 121.819 31.52C121.567 31.6133 121.282 31.66 120.965 31.66H120.685C120.545 31.66 120.475 31.59 120.475 31.45V30.75C120.475 30.61 120.545 30.54 120.685 30.54H120.965C121.32 30.54 121.609 30.4233 121.833 30.19C122.066 29.9567 122.29 29.56 122.505 29L119.775 22.07C119.719 21.93 119.766 21.86 119.915 21.86H120.755C120.858 21.86 120.932 21.8787 120.979 21.916C121.035 21.944 121.077 21.9953 121.105 22.07L123.065 27.32H123.135L125.095 22.07ZM127.99 29C127.85 29 127.78 28.93 127.78 28.79V22.07C127.78 21.93 127.85 21.86 127.99 21.86H132.61C132.75 21.86 132.82 21.93 132.82 22.07V22.77C132.82 22.91 132.75 22.98 132.61 22.98H128.97V28.79C128.97 28.93 128.9 29 128.76 29H127.99ZM139.826 21.86C139.966 21.86 140.036 21.93 140.036 22.07V28.79C140.036 28.93 139.966 29 139.826 29H139.056C138.916 29 138.846 28.93 138.846 28.79V23.68H138.776L135.416 28.79C135.37 28.8647 135.323 28.9207 135.276 28.958C135.23 28.986 135.136 29 134.996 29H134.156C134.016 29 133.946 28.93 133.946 28.79V22.07C133.946 21.93 134.016 21.86 134.156 21.86H134.926C135.066 21.86 135.136 21.93 135.136 22.07V27.18H135.206L138.566 22.07C138.613 21.9953 138.66 21.944 138.706 21.916C138.753 21.8787 138.846 21.86 138.986 21.86H139.826Z" fill="#7E7E82"/>
<path d="M20.55 45.45C20.41 45.45 20.34 45.38 20.34 45.24V44.75C20.34 44.61 20.41 44.54 20.55 44.54H22.16C22.6547 44.54 23.0327 44.4093 23.294 44.148C23.5647 43.8773 23.7 43.4947 23.7 43V42.51C23.7 42.0153 23.5647 41.6373 23.294 41.376C23.0327 41.1053 22.6547 40.97 22.16 40.97H19.64C19.1453 40.97 18.7627 41.1053 18.492 41.376C18.2307 41.6373 18.1 42.0153 18.1 42.51V42.93C18.1 43.07 18.03 43.14 17.89 43.14H17.4C17.26 43.14 17.19 43.07 17.19 42.93V42.51C17.19 41.7353 17.4047 41.1333 17.834 40.704C18.2633 40.2747 18.8653 40.06 19.64 40.06H22.16C22.9347 40.06 23.5367 40.2747 23.966 40.704C24.3953 41.1333 24.61 41.7353 24.61 42.51V43C24.61 43.4107 24.54 43.742 24.4 43.994C24.26 44.2367 24.106 44.4233 23.938 44.554C23.742 44.7127 23.5227 44.8247 23.28 44.89V44.96C23.5507 45.0347 23.7933 45.156 24.008 45.324C24.1947 45.4733 24.3627 45.6787 24.512 45.94C24.6707 46.2013 24.75 46.5513 24.75 46.99V47.69C24.75 48.4647 24.5353 49.0667 24.106 49.496C23.6767 49.9253 23.0747 50.14 22.3 50.14H19.5C18.7253 50.14 18.1233 49.9253 17.694 49.496C17.2647 49.0667 17.05 48.4647 17.05 47.69V47.27C17.05 47.13 17.12 47.06 17.26 47.06H17.75C17.89 47.06 17.96 47.13 17.96 47.27V47.69C17.96 48.1847 18.0907 48.5673 18.352 48.838C18.6227 49.0993 19.0053 49.23 19.5 49.23H22.3C22.7947 49.23 23.1727 49.0993 23.434 48.838C23.7047 48.5673 23.84 48.1847 23.84 47.69V46.99C23.84 46.4953 23.7047 46.1173 23.434 45.856C23.1727 45.5853 22.7947 45.45 22.3 45.45H20.55ZM27.8195 48.04C27.8195 48.432 27.9315 48.74 28.1555 48.964C28.3795 49.188 28.6875 49.3 29.0795 49.3H30.1995C30.6941 49.3 31.0861 49.1553 31.3755 48.866C31.6648 48.5767 31.8095 48.1847 31.8095 47.69V46.71H29.0795C28.6875 46.71 28.3795 46.822 28.1555 47.046C27.9315 47.27 27.8195 47.578 27.8195 47.97V48.04ZM26.9795 47.97C26.9795 47.298 27.1615 46.78 27.5255 46.416C27.8895 46.052 28.4075 45.87 29.0795 45.87H31.8095V44.89C31.8095 44.47 31.6928 44.1433 31.4595 43.91C31.2261 43.6767 30.8995 43.56 30.4795 43.56H29.5695C29.1495 43.56 28.8228 43.6767 28.5895 43.91C28.3561 44.1433 28.2395 44.47 28.2395 44.89C28.2395 45.03 28.1695 45.1 28.0295 45.1H27.6095C27.4695 45.1 27.3995 45.03 27.3995 44.89C27.3995 44.19 27.5861 43.6533 27.9595 43.28C28.3328 42.9067 28.8695 42.72 29.5695 42.72H30.4795C31.1795 42.72 31.7161 42.9067 32.0895 43.28C32.4628 43.6533 32.6495 44.19 32.6495 44.89V49.79C32.6495 49.93 32.5795 50 32.4395 50H32.0195C31.8795 50 31.8095 49.93 31.8095 49.79V49.23H31.7395C31.6461 49.4073 31.5295 49.5613 31.3895 49.692C31.2588 49.804 31.0955 49.9067 30.8995 50C30.7128 50.0933 30.4795 50.14 30.1995 50.14H29.0795C28.4075 50.14 27.8895 49.958 27.5255 49.594C27.1615 49.23 26.9795 48.712 26.9795 48.04V47.97ZM39.0767 50C38.9741 50 38.8994 49.986 38.8527 49.958C38.8061 49.9207 38.7641 49.8647 38.7267 49.79L36.1367 44.4H36.0667V49.79C36.0667 49.93 35.9967 50 35.8567 50H35.4367C35.2967 50 35.2267 49.93 35.2267 49.79V43.07C35.2267 42.93 35.2967 42.86 35.4367 42.86H35.9967C36.0994 42.86 36.1741 42.8787 36.2207 42.916C36.2674 42.944 36.3094 42.9953 36.3467 43.07L39.1467 48.88H39.2167L42.0167 43.07C42.0541 42.9953 42.0961 42.944 42.1427 42.916C42.1894 42.8787 42.2641 42.86 42.3667 42.86H42.9267C43.0667 42.86 43.1367 42.93 43.1367 43.07V49.79C43.1367 49.93 43.0667 50 42.9267 50H42.5067C42.3667 50 42.2967 49.93 42.2967 49.79V44.4H42.2267L39.6367 49.79C39.5994 49.8647 39.5574 49.9207 39.5107 49.958C39.4641 49.986 39.3894 50 39.2867 50H39.0767ZM51.4616 47.97C51.4616 48.67 51.275 49.2067 50.9016 49.58C50.5283 49.9533 49.9916 50.14 49.2916 50.14H47.7516C47.0516 50.14 46.515 49.9533 46.1416 49.58C45.7683 49.2067 45.5816 48.67 45.5816 47.97V44.89C45.5816 44.19 45.7683 43.6533 46.1416 43.28C46.515 42.9067 47.0516 42.72 47.7516 42.72H49.2916C49.9916 42.72 50.5283 42.9067 50.9016 43.28C51.275 43.6533 51.4616 44.19 51.4616 44.89V46.57C51.4616 46.71 51.3916 46.78 51.2516 46.78H46.4216V47.97C46.4216 48.39 46.5383 48.7167 46.7716 48.95C47.005 49.1833 47.3316 49.3 47.7516 49.3H49.2916C49.7116 49.3 50.0383 49.1833 50.2716 48.95C50.505 48.7167 50.6216 48.39 50.6216 47.97C50.6216 47.83 50.6916 47.76 50.8316 47.76H51.2516C51.3916 47.76 51.4616 47.83 51.4616 47.97ZM46.4216 45.94H50.6216V44.89C50.6216 44.47 50.505 44.1433 50.2716 43.91C50.0383 43.6767 49.7116 43.56 49.2916 43.56H47.7516C47.3316 43.56 47.005 43.6767 46.7716 43.91C46.5383 44.1433 46.4216 44.47 46.4216 44.89V45.94ZM59.366 42.86C59.506 42.86 59.576 42.93 59.576 43.07V49.79C59.576 49.93 59.506 50 59.366 50H58.946C58.806 50 58.736 49.93 58.736 49.79V46.78H54.746V49.79C54.746 49.93 54.676 50 54.536 50H54.116C53.976 50 53.906 49.93 53.906 49.79V43.07C53.906 42.93 53.976 42.86 54.116 42.86H54.536C54.676 42.86 54.746 42.93 54.746 43.07V45.94H58.736V43.07C58.736 42.93 58.806 42.86 58.946 42.86H59.366ZM62.6488 48.04C62.6488 48.432 62.7608 48.74 62.9848 48.964C63.2088 49.188 63.5168 49.3 63.9088 49.3H65.0288C65.5234 49.3 65.9154 49.1553 66.2048 48.866C66.4941 48.5767 66.6388 48.1847 66.6388 47.69V46.71H63.9088C63.5168 46.71 63.2088 46.822 62.9848 47.046C62.7608 47.27 62.6488 47.578 62.6488 47.97V48.04ZM61.8088 47.97C61.8088 47.298 61.9908 46.78 62.3548 46.416C62.7188 46.052 63.2368 45.87 63.9088 45.87H66.6388V44.89C66.6388 44.47 66.5221 44.1433 66.2888 43.91C66.0554 43.6767 65.7288 43.56 65.3088 43.56H64.3988C63.9788 43.56 63.6521 43.6767 63.4188 43.91C63.1854 44.1433 63.0688 44.47 63.0688 44.89C63.0688 45.03 62.9988 45.1 62.8588 45.1H62.4388C62.2988 45.1 62.2288 45.03 62.2288 44.89C62.2288 44.19 62.4154 43.6533 62.7888 43.28C63.1621 42.9067 63.6988 42.72 64.3988 42.72H65.3088C66.0088 42.72 66.5454 42.9067 66.9188 43.28C67.2921 43.6533 67.4788 44.19 67.4788 44.89V49.79C67.4788 49.93 67.4088 50 67.2688 50H66.8488C66.7088 50 66.6388 49.93 66.6388 49.79V49.23H66.5688C66.4754 49.4073 66.3588 49.5613 66.2188 49.692C66.0881 49.804 65.9248 49.9067 65.7288 50C65.5421 50.0933 65.3088 50.14 65.0288 50.14H63.9088C63.2368 50.14 62.7188 49.958 62.3548 49.594C61.9908 49.23 61.8088 48.712 61.8088 48.04V47.97ZM72.6404 49.16L73.9004 43.07C73.9284 42.93 74.0217 42.86 74.1804 42.86H77.9604C78.1004 42.86 78.1704 42.93 78.1704 43.07V49.16H78.8704C79.0104 49.16 79.0804 49.23 79.0804 49.37V51.4C79.0804 51.54 79.0104 51.61 78.8704 51.61H78.4504C78.3104 51.61 78.2404 51.54 78.2404 51.4V50H72.6404V51.4C72.6404 51.54 72.5704 51.61 72.4304 51.61H72.0104C71.8704 51.61 71.8004 51.54 71.8004 51.4V49.37C71.8004 49.23 71.8704 49.16 72.0104 49.16H72.6404ZM73.4804 49.16H77.3304V43.7H74.6004L73.4804 49.16ZM85.7877 44.12L82.0077 49.79C81.961 49.8647 81.9143 49.9207 81.8677 49.958C81.821 49.986 81.7277 50 81.5877 50H81.0977C80.9577 50 80.8877 49.93 80.8877 49.79V43.07C80.8877 42.93 80.9577 42.86 81.0977 42.86H81.5177C81.6577 42.86 81.7277 42.93 81.7277 43.07V48.74H81.7977L85.5777 43.07C85.6243 42.9953 85.671 42.944 85.7177 42.916C85.7643 42.8787 85.8577 42.86 85.9977 42.86H86.4877C86.6277 42.86 86.6977 42.93 86.6977 43.07V49.79C86.6977 49.93 86.6277 50 86.4877 50H86.0677C85.9277 50 85.8577 49.93 85.8577 49.79V44.12H85.7877ZM95.0171 47.97C95.0171 48.67 94.8304 49.2067 94.4571 49.58C94.0838 49.9533 93.5471 50.14 92.8471 50.14H91.3071C90.6071 50.14 90.0704 49.9533 89.6971 49.58C89.3238 49.2067 89.1371 48.67 89.1371 47.97V44.89C89.1371 44.19 89.3238 43.6533 89.6971 43.28C90.0704 42.9067 90.6071 42.72 91.3071 42.72H92.8471C93.5471 42.72 94.0838 42.9067 94.4571 43.28C94.8304 43.6533 95.0171 44.19 95.0171 44.89V45.1C95.0171 45.24 94.9471 45.31 94.8071 45.31H94.3871C94.2471 45.31 94.1771 45.24 94.1771 45.1V44.89C94.1771 44.47 94.0604 44.1433 93.8271 43.91C93.5938 43.6767 93.2671 43.56 92.8471 43.56H91.3071C90.8871 43.56 90.5604 43.6767 90.3271 43.91C90.0938 44.1433 89.9771 44.47 89.9771 44.89V47.97C89.9771 48.39 90.0938 48.7167 90.3271 48.95C90.5604 49.1833 90.8871 49.3 91.3071 49.3H92.8471C93.2671 49.3 93.5938 49.1833 93.8271 48.95C94.0604 48.7167 94.1771 48.39 94.1771 47.97V47.76C94.1771 47.62 94.2471 47.55 94.3871 47.55H94.8071C94.9471 47.55 95.0171 47.62 95.0171 47.76V47.97ZM102.771 42.86C102.911 42.86 102.981 42.93 102.981 43.07V49.79C102.981 49.93 102.911 50 102.771 50H102.351C102.211 50 102.141 49.93 102.141 49.79V43.7H98.1511V49.79C98.1511 49.93 98.0811 50 97.9411 50H97.5211C97.3811 50 97.3111 49.93 97.3111 49.79V43.07C97.3111 42.93 97.3811 42.86 97.5211 42.86H102.771ZM106.684 48.25C106.553 48.922 106.338 49.4073 106.04 49.706C105.741 49.9953 105.326 50.14 104.794 50.14H104.584C104.444 50.14 104.374 50.07 104.374 49.93V49.51C104.374 49.37 104.444 49.3 104.584 49.3H104.794C105.354 49.3 105.704 48.95 105.844 48.25L106.894 43.07C106.922 42.93 107.015 42.86 107.174 42.86H110.954C111.094 42.86 111.164 42.93 111.164 43.07V49.79C111.164 49.93 111.094 50 110.954 50H110.534C110.394 50 110.324 49.93 110.324 49.79V43.7H107.594L106.684 48.25ZM119.488 47.97C119.488 48.67 119.302 49.2067 118.928 49.58C118.555 49.9533 118.018 50.14 117.318 50.14H115.778C115.078 50.14 114.542 49.9533 114.168 49.58C113.795 49.2067 113.608 48.67 113.608 47.97V44.89C113.608 44.19 113.795 43.6533 114.168 43.28C114.542 42.9067 115.078 42.72 115.778 42.72H117.318C118.018 42.72 118.555 42.9067 118.928 43.28C119.302 43.6533 119.488 44.19 119.488 44.89V46.57C119.488 46.71 119.418 46.78 119.278 46.78H114.448V47.97C114.448 48.39 114.565 48.7167 114.798 48.95C115.032 49.1833 115.358 49.3 115.778 49.3H117.318C117.738 49.3 118.065 49.1833 118.298 48.95C118.532 48.7167 118.648 48.39 118.648 47.97C118.648 47.83 118.718 47.76 118.858 47.76H119.278C119.418 47.76 119.488 47.83 119.488 47.97ZM114.448 45.94H118.648V44.89C118.648 44.47 118.532 44.1433 118.298 43.91C118.065 43.6767 117.738 43.56 117.318 43.56H115.778C115.358 43.56 115.032 43.6767 114.798 43.91C114.565 44.1433 114.448 44.47 114.448 44.89V45.94ZM121.583 44.96C121.583 44.288 121.765 43.77 122.129 43.406C122.493 43.042 123.011 42.86 123.683 42.86H126.903C127.043 42.86 127.113 42.93 127.113 43.07V49.79C127.113 49.93 127.043 50 126.903 50H126.483C126.343 50 126.273 49.93 126.273 49.79V47.48H123.893L122.633 49.79C122.586 49.8647 122.544 49.9207 122.507 49.958C122.479 49.986 122.427 50 122.353 50H121.793C121.718 50 121.667 49.986 121.639 49.958C121.611 49.9207 121.615 49.8647 121.653 49.79L122.983 47.41C122.721 47.354 122.488 47.242 122.283 47.074C122.105 46.934 121.942 46.7333 121.793 46.472C121.653 46.2013 121.583 45.8373 121.583 45.38V44.96ZM126.273 46.64V43.7H123.683C123.291 43.7 122.983 43.812 122.759 44.036C122.535 44.26 122.423 44.568 122.423 44.96V45.38C122.423 45.772 122.535 46.08 122.759 46.304C122.983 46.528 123.291 46.64 123.683 46.64H126.273Z" fill="#1B1C21"/>
<path opacity="0.721842" d="M17.61 101C17.47 101 17.4 100.93 17.4 100.79V91.41C17.4 91.27 17.47 91.2 17.61 91.2H18.52C18.66 91.2 18.73 91.27 18.73 91.41V99.74H23.63V91.41C23.63 91.27 23.7 91.2 23.84 91.2H24.75C24.89 91.2 24.96 91.27 24.96 91.41V99.95L26.36 101.49C26.3973 101.527 26.416 101.574 26.416 101.63C26.416 101.686 26.3973 101.733 26.36 101.77L25.66 102.4C25.5573 102.484 25.464 102.484 25.38 102.4L24.12 101H17.61ZM32.5047 96.8V95.89C32.5047 95.5727 32.4067 95.3207 32.2107 95.134C32.024 94.938 31.772 94.84 31.4547 94.84H29.7747C29.4574 94.84 29.2007 94.938 29.0047 95.134C28.818 95.3207 28.7247 95.5727 28.7247 95.89V96.8H32.5047ZM28.7247 97.92V98.97C28.7247 99.2873 28.818 99.544 29.0047 99.74C29.2007 99.9267 29.4574 100.02 29.7747 100.02H31.4547C31.772 100.02 32.024 99.9267 32.2107 99.74C32.4067 99.544 32.5047 99.2873 32.5047 98.97V98.9C32.5047 98.76 32.5747 98.69 32.7147 98.69H33.4847C33.6247 98.69 33.6947 98.76 33.6947 98.9V98.97C33.6947 99.67 33.5034 100.207 33.1207 100.58C32.7474 100.953 32.192 101.14 31.4547 101.14H29.7747C29.0374 101.14 28.4774 100.953 28.0947 100.58C27.7214 100.207 27.5347 99.67 27.5347 98.97V95.89C27.5347 95.19 27.7214 94.6533 28.0947 94.28C28.4774 93.9067 29.0374 93.72 29.7747 93.72H31.4547C32.192 93.72 32.7474 93.9067 33.1207 94.28C33.5034 94.6533 33.6947 95.19 33.6947 95.89V97.71C33.6947 97.85 33.6247 97.92 33.4847 97.92H28.7247ZM36.9858 97.92V100.79C36.9858 100.93 36.9158 101 36.7758 101H36.0058C35.8658 101 35.7958 100.93 35.7958 100.79V94.07C35.7958 93.93 35.8658 93.86 36.0058 93.86H36.7758C36.9158 93.86 36.9858 93.93 36.9858 94.07V96.87H40.5558V94.07C40.5558 93.93 40.6258 93.86 40.7658 93.86H41.5358C41.6758 93.86 41.7458 93.93 41.7458 94.07V100.79C41.7458 100.93 41.6758 101 41.5358 101H40.7658C40.6258 101 40.5558 100.93 40.5558 100.79V97.92H36.9858ZM43.7052 98.83C43.7052 97.4767 44.4052 96.8 45.8052 96.8H48.3952V95.89C48.3952 95.5727 48.2972 95.3207 48.1012 95.134C47.9146 94.938 47.6626 94.84 47.3452 94.84H46.3652C46.0479 94.84 45.7912 94.938 45.5952 95.134C45.4086 95.3207 45.3152 95.5727 45.3152 95.89C45.3152 96.03 45.2452 96.1 45.1052 96.1H44.3352C44.1952 96.1 44.1252 96.03 44.1252 95.89C44.1252 95.19 44.3119 94.6533 44.6852 94.28C45.0679 93.9067 45.6279 93.72 46.3652 93.72H47.3452C48.0826 93.72 48.6379 93.9067 49.0112 94.28C49.3939 94.6533 49.5852 95.19 49.5852 95.89V100.79C49.5852 100.93 49.5152 101 49.3752 101H48.6052C48.4652 101 48.3952 100.93 48.3952 100.79V100.3H48.3252C48.2506 100.459 48.1432 100.599 48.0032 100.72C47.8819 100.823 47.7232 100.916 47.5272 101C47.3312 101.093 47.0839 101.14 46.7852 101.14H45.8052C44.4052 101.14 43.7052 100.463 43.7052 99.11V98.83ZM44.8952 99.11C44.8952 99.39 44.9746 99.614 45.1332 99.782C45.3012 99.9407 45.5252 100.02 45.8052 100.02H46.9252C47.3452 100.02 47.6952 99.88 47.9752 99.6C48.2552 99.32 48.3952 98.97 48.3952 98.55V97.92H45.8052C45.5252 97.92 45.3012 98.004 45.1332 98.172C44.9746 98.3307 44.8952 98.55 44.8952 98.83V99.11Z" fill="#7E7E82"/>
<path d="M18.59 113.11H16.49C16.35 113.11 16.28 113.04 16.28 112.9V112.41C16.28 112.27 16.35 112.2 16.49 112.2H19.29C19.43 112.2 19.5 112.27 19.5 112.41V121.79C19.5 121.93 19.43 122 19.29 122H18.8C18.66 122 18.59 121.93 18.59 121.79V113.11ZM29.0866 114.51C29.0866 114.015 28.9512 113.637 28.6806 113.376C28.4192 113.105 28.0412 112.97 27.5466 112.97H24.9566C24.4619 112.97 24.0792 113.105 23.8086 113.376C23.5472 113.637 23.4166 114.015 23.4166 114.51V119.69C23.4166 120.185 23.5472 120.567 23.8086 120.838C24.0792 121.099 24.4619 121.23 24.9566 121.23H27.5466C28.0412 121.23 28.4192 121.099 28.6806 120.838C28.9512 120.567 29.0866 120.185 29.0866 119.69V114.51ZM29.9966 119.69C29.9966 120.465 29.7819 121.067 29.3526 121.496C28.9232 121.925 28.3212 122.14 27.5466 122.14H24.9566C24.1819 122.14 23.5799 121.925 23.1506 121.496C22.7212 121.067 22.5066 120.465 22.5066 119.69V114.51C22.5066 113.735 22.7212 113.133 23.1506 112.704C23.5799 112.275 24.1819 112.06 24.9566 112.06H27.5466C28.3212 112.06 28.9232 112.275 29.3526 112.704C29.7819 113.133 29.9966 113.735 29.9966 114.51V119.69ZM39.4311 114.51C39.4311 114.015 39.2958 113.637 39.0251 113.376C38.7638 113.105 38.3858 112.97 37.8911 112.97H35.3011C34.8064 112.97 34.4238 113.105 34.1531 113.376C33.8918 113.637 33.7611 114.015 33.7611 114.51V119.69C33.7611 120.185 33.8918 120.567 34.1531 120.838C34.4238 121.099 34.8064 121.23 35.3011 121.23H37.8911C38.3858 121.23 38.7638 121.099 39.0251 120.838C39.2958 120.567 39.4311 120.185 39.4311 119.69V114.51ZM40.3411 119.69C40.3411 120.465 40.1264 121.067 39.6971 121.496C39.2678 121.925 38.6658 122.14 37.8911 122.14H35.3011C34.5264 122.14 33.9244 121.925 33.4951 121.496C33.0658 121.067 32.8511 120.465 32.8511 119.69V114.51C32.8511 113.735 33.0658 113.133 33.4951 112.704C33.9244 112.275 34.5264 112.06 35.3011 112.06H37.8911C38.6658 112.06 39.2678 112.275 39.6971 112.704C40.1264 113.133 40.3411 113.735 40.3411 114.51V119.69ZM49.7756 114.51C49.7756 114.015 49.6403 113.637 49.3696 113.376C49.1083 113.105 48.7303 112.97 48.2356 112.97H45.6456C45.151 112.97 44.7683 113.105 44.4976 113.376C44.2363 113.637 44.1056 114.015 44.1056 114.51V119.69C44.1056 120.185 44.2363 120.567 44.4976 120.838C44.7683 121.099 45.151 121.23 45.6456 121.23H48.2356C48.7303 121.23 49.1083 121.099 49.3696 120.838C49.6403 120.567 49.7756 120.185 49.7756 119.69V114.51ZM50.6856 119.69C50.6856 120.465 50.471 121.067 50.0416 121.496C49.6123 121.925 49.0103 122.14 48.2356 122.14H45.6456C44.871 122.14 44.269 121.925 43.8396 121.496C43.4103 121.067 43.1956 120.465 43.1956 119.69V114.51C43.1956 113.735 43.4103 113.133 43.8396 112.704C44.269 112.275 44.871 112.06 45.6456 112.06H48.2356C49.0103 112.06 49.6123 112.275 50.0416 112.704C50.471 113.133 50.6856 113.735 50.6856 114.51V119.69ZM57.8045 119.97V121.79C57.8045 121.93 57.7345 122 57.5945 122H57.1045C56.9645 122 56.8945 121.93 56.8945 121.79V119.97H55.9145C55.7745 119.97 55.7045 119.9 55.7045 119.76V119.27C55.7045 119.13 55.7745 119.06 55.9145 119.06H56.8945V117.8H55.9145C55.7745 117.8 55.7045 117.73 55.7045 117.59V117.1C55.7045 116.96 55.7745 116.89 55.9145 116.89H56.8945V112.41C56.8945 112.27 56.9645 112.2 57.1045 112.2H61.3045C62.0792 112.2 62.6812 112.415 63.1105 112.844C63.5399 113.273 63.7545 113.875 63.7545 114.65V115.35C63.7545 116.125 63.5399 116.727 63.1105 117.156C62.6812 117.585 62.0792 117.8 61.3045 117.8H57.8045V119.06H62.2845C62.4245 119.06 62.4945 119.13 62.4945 119.27V119.76C62.4945 119.9 62.4245 119.97 62.2845 119.97H57.8045ZM57.8045 113.11V116.89H61.3045C61.7992 116.89 62.1772 116.759 62.4385 116.498C62.7092 116.227 62.8445 115.845 62.8445 115.35V114.65C62.8445 114.155 62.7092 113.777 62.4385 113.516C62.1772 113.245 61.7992 113.11 61.3045 113.11H57.8045Z" fill="#1B1C21"/>
</svg>
