<svg width="260" height="200" viewBox="0 0 260 200" fill="none" xmlns="http://www.w3.org/2000/svg">
<rect width="260" height="200" rx="6" fill="white"/>
<path d="M125 168C125 159.163 132.163 152 141 152H228C236.837 152 244 159.163 244 168C244 176.837 236.837 184 228 184H141C132.163 184 125 176.837 125 168Z" fill="#FF3E79"/>
<path d="M145.003 166.24C145.003 166.528 144.947 166.76 144.835 166.936C144.723 167.104 144.599 167.236 144.463 167.332C144.303 167.444 144.123 167.52 143.923 167.56V167.68C144.147 167.728 144.347 167.816 144.523 167.944C144.675 168.056 144.811 168.216 144.931 168.424C145.059 168.624 145.123 168.896 145.123 169.24V170.02C145.123 171.42 144.423 172.12 143.023 172.12H139.723C138.323 172.12 137.623 171.42 137.623 170.02V169.42C137.623 169.22 137.723 169.12 137.923 169.12H139.243C139.443 169.12 139.543 169.22 139.543 169.42V169.78C139.543 170.22 139.763 170.44 140.203 170.44H142.543C142.983 170.44 143.203 170.22 143.203 169.78V169.24C143.203 168.8 142.983 168.58 142.543 168.58H140.803C140.603 168.58 140.503 168.48 140.503 168.28V167.2C140.503 167 140.603 166.9 140.803 166.9H142.423C142.863 166.9 143.083 166.68 143.083 166.24V165.82C143.083 165.38 142.863 165.16 142.423 165.16H140.323C139.883 165.16 139.663 165.38 139.663 165.82V166.18C139.663 166.38 139.563 166.48 139.363 166.48H138.043C137.843 166.48 137.743 166.38 137.743 166.18V165.58C137.743 164.18 138.443 163.48 139.843 163.48H142.903C144.303 163.48 145.003 164.18 145.003 165.58V166.24ZM148.493 170.26L147.953 171.7C147.913 171.788 147.861 171.86 147.797 171.916C147.741 171.972 147.653 172 147.533 172H146.033C145.833 172 145.773 171.9 145.853 171.7L148.793 163.9C148.873 163.7 149.033 163.6 149.273 163.6H151.013C151.133 163.6 151.221 163.628 151.277 163.684C151.341 163.74 151.393 163.812 151.433 163.9L154.373 171.7C154.453 171.9 154.393 172 154.193 172H152.693C152.573 172 152.481 171.972 152.417 171.916C152.361 171.86 152.313 171.788 152.273 171.7L151.733 170.26H148.493ZM151.133 168.58L150.173 166H150.053L149.093 168.58H151.133ZM157.263 166.78H158.883L160.443 163.9C160.491 163.812 160.551 163.74 160.623 163.684C160.703 163.628 160.803 163.6 160.923 163.6H162.423C162.511 163.6 162.575 163.628 162.615 163.684C162.655 163.74 162.651 163.812 162.603 163.9L160.563 167.56L162.843 171.7C162.891 171.788 162.895 171.86 162.855 171.916C162.815 171.972 162.751 172 162.663 172H161.163C161.043 172 160.943 171.972 160.863 171.916C160.791 171.86 160.731 171.788 160.683 171.7L158.943 168.46H157.263V171.7C157.263 171.9 157.163 172 156.963 172H155.643C155.443 172 155.343 171.9 155.343 171.7V163.9C155.343 163.7 155.443 163.6 155.643 163.6H156.963C157.163 163.6 157.263 163.7 157.263 163.9V166.78ZM165.654 170.26L165.114 171.7C165.074 171.788 165.022 171.86 164.958 171.916C164.902 171.972 164.814 172 164.694 172H163.194C162.994 172 162.934 171.9 163.014 171.7L165.954 163.9C166.034 163.7 166.194 163.6 166.434 163.6H168.174C168.294 163.6 168.382 163.628 168.438 163.684C168.502 163.74 168.554 163.812 168.594 163.9L171.534 171.7C171.614 171.9 171.554 172 171.354 172H169.854C169.734 172 169.642 171.972 169.578 171.916C169.522 171.86 169.474 171.788 169.434 171.7L168.894 170.26H165.654ZM168.294 168.58L167.334 166H167.214L166.254 168.58H168.294ZM179.524 166.24C179.524 166.528 179.468 166.76 179.356 166.936C179.244 167.104 179.12 167.236 178.984 167.332C178.824 167.444 178.644 167.52 178.444 167.56V167.68C178.668 167.728 178.868 167.816 179.044 167.944C179.196 168.056 179.332 168.216 179.452 168.424C179.58 168.624 179.644 168.896 179.644 169.24V170.02C179.644 171.42 178.944 172.12 177.544 172.12H174.244C172.844 172.12 172.144 171.42 172.144 170.02V169.42C172.144 169.22 172.244 169.12 172.444 169.12H173.764C173.964 169.12 174.064 169.22 174.064 169.42V169.78C174.064 170.22 174.284 170.44 174.724 170.44H177.064C177.504 170.44 177.724 170.22 177.724 169.78V169.24C177.724 168.8 177.504 168.58 177.064 168.58H175.324C175.124 168.58 175.024 168.48 175.024 168.28V167.2C175.024 167 175.124 166.9 175.324 166.9H176.944C177.384 166.9 177.604 166.68 177.604 166.24V165.82C177.604 165.38 177.384 165.16 176.944 165.16H174.844C174.404 165.16 174.184 165.38 174.184 165.82V166.18C174.184 166.38 174.084 166.48 173.884 166.48H172.564C172.364 166.48 172.264 166.38 172.264 166.18V165.58C172.264 164.18 172.964 163.48 174.364 163.48H177.424C178.824 163.48 179.524 164.18 179.524 165.58V166.24ZM183.014 170.26L182.474 171.7C182.434 171.788 182.382 171.86 182.318 171.916C182.262 171.972 182.174 172 182.054 172H180.554C180.354 172 180.294 171.9 180.374 171.7L183.314 163.9C183.394 163.7 183.554 163.6 183.794 163.6H185.534C185.654 163.6 185.742 163.628 185.798 163.684C185.862 163.74 185.914 163.812 185.954 163.9L188.894 171.7C188.974 171.9 188.914 172 188.714 172H187.214C187.094 172 187.002 171.972 186.938 171.916C186.882 171.86 186.834 171.788 186.794 171.7L186.254 170.26H183.014ZM185.654 168.58L184.694 166H184.574L183.614 168.58H185.654ZM192.449 171.7C192.449 171.9 192.349 172 192.149 172H190.829C190.629 172 190.529 171.9 190.529 171.7V165.28H188.129C187.929 165.28 187.829 165.18 187.829 164.98V163.9C187.829 163.7 187.929 163.6 188.129 163.6H194.849C195.049 163.6 195.149 163.7 195.149 163.9V164.98C195.149 165.18 195.049 165.28 194.849 165.28H192.449V171.7ZM201.177 166.12C202.577 166.12 203.277 166.82 203.277 168.22V169.9C203.277 171.3 202.577 172 201.177 172H196.377C196.177 172 196.077 171.9 196.077 171.7V163.9C196.077 163.7 196.177 163.6 196.377 163.6H197.697C197.897 163.6 197.997 163.7 197.997 163.9V166.12H201.177ZM200.697 170.32C201.137 170.32 201.357 170.1 201.357 169.66V168.46C201.357 168.02 201.137 167.8 200.697 167.8H197.997V170.32H200.697Z" fill="white"/>
<rect x="212" y="156" width="24" height="24" rx="12" fill="#FF3E79"/>
<path fill-rule="evenodd" clip-rule="evenodd" d="M224.8 168L221.792 165.229C221.364 164.835 221.361 164.161 221.785 163.764L221.92 163.637C222.303 163.278 222.899 163.276 223.284 163.633L227.938 167.943C227.971 167.974 227.971 168.026 227.938 168.057L223.347 172.309C222.926 172.698 222.276 172.696 221.858 172.304C221.394 171.87 221.398 171.134 221.865 170.704L224.8 168Z" fill="white"/>
<path d="M19.15 171.1C19.01 171.1 18.94 171.03 18.94 170.89V170.61C18.94 170.507 18.9587 170.433 18.996 170.386C19.0427 170.33 19.094 170.265 19.15 170.19L22.37 167.18V167.11H17.47C17.33 167.11 17.26 167.04 17.26 166.9V166.41C17.26 166.27 17.33 166.2 17.47 166.2H23.63C23.77 166.2 23.84 166.27 23.84 166.41V166.69C23.84 166.793 23.8167 166.872 23.77 166.928C23.7327 166.975 23.686 167.035 23.63 167.11L20.41 170.12V170.19H21.53C22.3047 170.19 22.9067 170.405 23.336 170.834C23.7653 171.263 23.98 171.865 23.98 172.64V173.69C23.98 174.465 23.7653 175.067 23.336 175.496C22.9067 175.925 22.3047 176.14 21.53 176.14H19.43C18.6553 176.14 18.0533 175.925 17.624 175.496C17.1947 175.067 16.98 174.465 16.98 173.69V173.27C16.98 173.13 17.05 173.06 17.19 173.06H17.68C17.82 173.06 17.89 173.13 17.89 173.27V173.69C17.89 174.185 18.0207 174.567 18.282 174.838C18.5527 175.099 18.9353 175.23 19.43 175.23H21.53C22.0247 175.23 22.4027 175.099 22.664 174.838C22.9347 174.567 23.07 174.185 23.07 173.69V172.64C23.07 172.145 22.9347 171.767 22.664 171.506C22.4027 171.235 22.0247 171.1 21.53 171.1H19.15ZM33.2155 168.51C33.2155 168.015 33.0801 167.637 32.8095 167.376C32.5481 167.105 32.1701 166.97 31.6755 166.97H29.0855C28.5908 166.97 28.2081 167.105 27.9375 167.376C27.6761 167.637 27.5455 168.015 27.5455 168.51V173.69C27.5455 174.185 27.6761 174.567 27.9375 174.838C28.2081 175.099 28.5908 175.23 29.0855 175.23H31.6755C32.1701 175.23 32.5481 175.099 32.8095 174.838C33.0801 174.567 33.2155 174.185 33.2155 173.69V168.51ZM34.1255 173.69C34.1255 174.465 33.9108 175.067 33.4815 175.496C33.0521 175.925 32.4501 176.14 31.6755 176.14H29.0855C28.3108 176.14 27.7088 175.925 27.2795 175.496C26.8501 175.067 26.6355 174.465 26.6355 173.69V168.51C26.6355 167.735 26.8501 167.133 27.2795 166.704C27.7088 166.275 28.3108 166.06 29.0855 166.06H31.6755C32.4501 166.06 33.0521 166.275 33.4815 166.704C33.9108 167.133 34.1255 167.735 34.1255 168.51V173.69ZM36.28 172.15C36.14 172.15 36.07 172.08 36.07 171.94V171.45C36.07 171.31 36.14 171.24 36.28 171.24H40.97C41.11 171.24 41.18 171.31 41.18 171.45V171.94C41.18 172.08 41.11 172.15 40.97 172.15H36.28ZM44.3873 167.11H42.2873C42.1473 167.11 42.0773 167.04 42.0773 166.9V166.41C42.0773 166.27 42.1473 166.2 42.2873 166.2H45.0873C45.2273 166.2 45.2973 166.27 45.2973 166.41V175.79C45.2973 175.93 45.2273 176 45.0873 176H44.5973C44.4573 176 44.3873 175.93 44.3873 175.79V167.11ZM49.4238 175.02V175.09H54.6738C54.8138 175.09 54.8838 175.16 54.8838 175.3V175.79C54.8838 175.93 54.8138 176 54.6738 176H48.2338C48.0938 176 48.0238 175.93 48.0238 175.79V175.37C48.0238 175.267 48.0425 175.193 48.0798 175.146C48.1265 175.09 48.1778 175.025 48.2338 174.95L53.0638 170.54C53.3438 170.288 53.5632 170.059 53.7218 169.854C53.8898 169.649 53.9738 169.387 53.9738 169.07V168.51C53.9738 168.015 53.8385 167.637 53.5678 167.376C53.3065 167.105 52.9285 166.97 52.4338 166.97H50.4738C49.9792 166.97 49.5965 167.105 49.3258 167.376C49.0645 167.637 48.9338 168.015 48.9338 168.51V168.93C48.9338 169.07 48.8638 169.14 48.7238 169.14H48.2338C48.0938 169.14 48.0238 169.07 48.0238 168.93V168.51C48.0238 167.735 48.2385 167.133 48.6678 166.704C49.0972 166.275 49.6992 166.06 50.4738 166.06H52.4338C53.2085 166.06 53.8105 166.275 54.2398 166.704C54.6692 167.133 54.8838 167.735 54.8838 168.51V169.07C54.8838 169.313 54.8512 169.532 54.7858 169.728C54.7205 169.924 54.6365 170.106 54.5338 170.274C54.4312 170.433 54.3098 170.582 54.1698 170.722C54.0392 170.853 53.9038 170.979 53.7638 171.1L49.4238 175.02ZM64.1893 168.51C64.1893 168.015 64.054 167.637 63.7833 167.376C63.522 167.105 63.144 166.97 62.6493 166.97H60.0593C59.5646 166.97 59.182 167.105 58.9113 167.376C58.65 167.637 58.5193 168.015 58.5193 168.51V173.69C58.5193 174.185 58.65 174.567 58.9113 174.838C59.182 175.099 59.5646 175.23 60.0593 175.23H62.6493C63.144 175.23 63.522 175.099 63.7833 174.838C64.054 174.567 64.1893 174.185 64.1893 173.69V168.51ZM65.0993 173.69C65.0993 174.465 64.8846 175.067 64.4553 175.496C64.026 175.925 63.424 176.14 62.6493 176.14H60.0593C59.2846 176.14 58.6826 175.925 58.2533 175.496C57.824 175.067 57.6093 174.465 57.6093 173.69V168.51C57.6093 167.735 57.824 167.133 58.2533 166.704C58.6826 166.275 59.2846 166.06 60.0593 166.06H62.6493C63.424 166.06 64.026 166.275 64.4553 166.704C64.8846 167.133 65.0993 167.735 65.0993 168.51V173.69ZM74.5982 176C74.4955 176 74.4209 175.986 74.3742 175.958C74.3275 175.921 74.2855 175.865 74.2482 175.79L71.6582 170.4H71.5882V175.79C71.5882 175.93 71.5182 176 71.3782 176H70.9582C70.8182 176 70.7482 175.93 70.7482 175.79V169.07C70.7482 168.93 70.8182 168.86 70.9582 168.86H71.5182C71.6209 168.86 71.6955 168.879 71.7422 168.916C71.7889 168.944 71.8309 168.995 71.8682 169.07L74.6682 174.88H74.7382L77.5382 169.07C77.5755 168.995 77.6175 168.944 77.6642 168.916C77.7109 168.879 77.7855 168.86 77.8882 168.86H78.4482C78.5882 168.86 78.6582 168.93 78.6582 169.07V175.79C78.6582 175.93 78.5882 176 78.4482 176H78.0282C77.8882 176 77.8182 175.93 77.8182 175.79V170.4H77.7482L75.1582 175.79C75.1209 175.865 75.0789 175.921 75.0322 175.958C74.9855 175.986 74.9109 176 74.8082 176H74.5982ZM86.1431 170.12L82.3631 175.79C82.3165 175.865 82.2698 175.921 82.2231 175.958C82.1765 175.986 82.0831 176 81.9431 176H81.4531C81.3131 176 81.2431 175.93 81.2431 175.79V169.07C81.2431 168.93 81.3131 168.86 81.4531 168.86H81.8731C82.0131 168.86 82.0831 168.93 82.0831 169.07V174.74H82.1531L85.9331 169.07C85.9798 168.995 86.0265 168.944 86.0731 168.916C86.1198 168.879 86.2131 168.86 86.3531 168.86H86.8431C86.9831 168.86 87.0531 168.93 87.0531 169.07V175.79C87.0531 175.93 86.9831 176 86.8431 176H86.4231C86.2831 176 86.2131 175.93 86.2131 175.79V170.12H86.1431ZM95.0926 168.86C95.2326 168.86 95.3026 168.93 95.3026 169.07V175.79C95.3026 175.93 95.2326 176 95.0926 176H94.6726C94.5326 176 94.4626 175.93 94.4626 175.79V172.78H90.4726V175.79C90.4726 175.93 90.4026 176 90.2626 176H89.8426C89.7026 176 89.6326 175.93 89.6326 175.79V169.07C89.6326 168.93 89.7026 168.86 89.8426 168.86H90.2626C90.4026 168.86 90.4726 168.93 90.4726 169.07V171.94H94.4626V169.07C94.4626 168.93 94.5326 168.86 94.6726 168.86H95.0926Z" fill="#1B1C21"/>
<path opacity="0.721842" d="M17.26 147.51C17.26 145.877 18.1 145.06 19.78 145.06H23C24.68 145.06 25.52 145.877 25.52 147.51V148.07C25.52 148.21 25.45 148.28 25.31 148.28H24.4C24.26 148.28 24.19 148.21 24.19 148.07V147.51C24.19 146.717 23.7933 146.32 23 146.32H19.78C18.9867 146.32 18.59 146.717 18.59 147.51V152.69C18.59 153.483 18.9867 153.88 19.78 153.88H23C23.7933 153.88 24.19 153.483 24.19 152.69V152.13C24.19 151.99 24.26 151.92 24.4 151.92H25.31C25.45 151.92 25.52 151.99 25.52 152.13V152.69C25.52 154.323 24.68 155.14 23 155.14H19.78C18.1 155.14 17.26 154.323 17.26 152.69V147.51ZM31.47 153.88C31.7873 153.88 32.0393 153.787 32.226 153.6C32.422 153.404 32.52 153.147 32.52 152.83V149.89C32.52 149.573 32.422 149.321 32.226 149.134C32.0393 148.938 31.7873 148.84 31.47 148.84H30.28C29.86 148.84 29.51 148.98 29.23 149.26C28.95 149.54 28.81 149.89 28.81 150.31V153.88H31.47ZM28.81 155V157.45C28.81 157.59 28.74 157.66 28.6 157.66H27.83C27.69 157.66 27.62 157.59 27.62 157.45V148.07C27.62 147.93 27.69 147.86 27.83 147.86H28.6C28.74 147.86 28.81 147.93 28.81 148.07V148.56H28.88C28.9547 148.401 29.062 148.261 29.202 148.14C29.3233 148.037 29.482 147.944 29.678 147.86C29.874 147.767 30.1213 147.72 30.42 147.72H31.47C32.2073 147.72 32.7627 147.907 33.136 148.28C33.5187 148.653 33.71 149.19 33.71 149.89V152.83C33.71 153.53 33.5187 154.067 33.136 154.44C32.7627 154.813 32.2073 155 31.47 155H28.81ZM40.7095 149.89C40.7095 149.573 40.6115 149.321 40.4155 149.134C40.2288 148.938 39.9768 148.84 39.6595 148.84H37.9095C37.5921 148.84 37.3355 148.938 37.1395 149.134C36.9528 149.321 36.8595 149.573 36.8595 149.89V152.97C36.8595 153.287 36.9528 153.544 37.1395 153.74C37.3355 153.927 37.5921 154.02 37.9095 154.02H39.6595C39.9768 154.02 40.2288 153.927 40.4155 153.74C40.6115 153.544 40.7095 153.287 40.7095 152.97V149.89ZM41.8995 152.97C41.8995 153.67 41.7081 154.207 41.3255 154.58C40.9521 154.953 40.3968 155.14 39.6595 155.14H37.9095C37.1721 155.14 36.6121 154.953 36.2295 154.58C35.8561 154.207 35.6695 153.67 35.6695 152.97V149.89C35.6695 149.19 35.8561 148.653 36.2295 148.28C36.6121 147.907 37.1721 147.72 37.9095 147.72H39.6595C40.3968 147.72 40.9521 147.907 41.3255 148.28C41.7081 148.653 41.8995 149.19 41.8995 149.89V152.97ZM46.9389 151.78H45.1889V154.79C45.1889 154.93 45.1189 155 44.9789 155H44.2089C44.0689 155 43.9989 154.93 43.9989 154.79V148.07C43.9989 147.93 44.0689 147.86 44.2089 147.86H44.9789C45.1189 147.86 45.1889 147.93 45.1889 148.07V150.66H46.9389L48.3389 148.07C48.3762 147.995 48.4182 147.944 48.4649 147.916C48.5116 147.879 48.5862 147.86 48.6889 147.86H49.5289C49.6876 147.86 49.7342 147.93 49.6689 148.07L47.9189 151.22L49.8789 154.79C49.9442 154.93 49.8976 155 49.7389 155H48.8989C48.7962 155 48.7216 154.986 48.6749 154.958C48.6282 154.921 48.5862 154.865 48.5489 154.79L46.9389 151.78Z" fill="#7E7E82"/>
<path opacity="0.721842" d="M22.72 24.66C23.5133 24.66 23.91 24.2633 23.91 23.47V21.65C23.91 20.8567 23.5133 20.46 22.72 20.46H18.73V24.66H22.72ZM18.73 25.92V28.79C18.73 28.93 18.66 29 18.52 29H17.61C17.47 29 17.4 28.93 17.4 28.79V19.41C17.4 19.27 17.47 19.2 17.61 19.2H22.72C24.4 19.2 25.24 20.0167 25.24 21.65V23.47C25.24 25.1033 24.4 25.92 22.72 25.92H18.73ZM32.1766 24.8V23.89C32.1766 23.5727 32.0786 23.3207 31.8826 23.134C31.6959 22.938 31.4439 22.84 31.1266 22.84H29.4466C29.1292 22.84 28.8726 22.938 28.6766 23.134C28.4899 23.3207 28.3966 23.5727 28.3966 23.89V24.8H32.1766ZM28.3966 25.92V26.97C28.3966 27.2873 28.4899 27.544 28.6766 27.74C28.8726 27.9267 29.1292 28.02 29.4466 28.02H31.1266C31.4439 28.02 31.6959 27.9267 31.8826 27.74C32.0786 27.544 32.1766 27.2873 32.1766 26.97V26.9C32.1766 26.76 32.2466 26.69 32.3866 26.69H33.1566C33.2966 26.69 33.3666 26.76 33.3666 26.9V26.97C33.3666 27.67 33.1752 28.2067 32.7926 28.58C32.4192 28.9533 31.8639 29.14 31.1266 29.14H29.4466C28.7092 29.14 28.1492 28.9533 27.7666 28.58C27.3932 28.2067 27.2066 27.67 27.2066 26.97V23.89C27.2066 23.19 27.3932 22.6533 27.7666 22.28C28.1492 21.9067 28.7092 21.72 29.4466 21.72H31.1266C31.8639 21.72 32.4192 21.9067 32.7926 22.28C33.1752 22.6533 33.3666 23.19 33.3666 23.89V25.71C33.3666 25.85 33.2966 25.92 33.1566 25.92H28.3966ZM39.5277 27.46L42.0477 22.07C42.085 21.9953 42.127 21.944 42.1737 21.916C42.2297 21.8787 42.3277 21.86 42.4677 21.86H43.3077C43.4477 21.86 43.5177 21.93 43.5177 22.07V28.79C43.5177 28.93 43.4477 29 43.3077 29H42.5377C42.3977 29 42.3277 28.93 42.3277 28.79V24.17H42.2577L40.0877 28.79C40.0503 28.8647 40.0037 28.9207 39.9477 28.958C39.901 28.986 39.8077 29 39.6677 29H39.3177C39.1777 29 39.0797 28.986 39.0237 28.958C38.977 28.9207 38.935 28.8647 38.8977 28.79L36.7277 24.17H36.6577V28.79C36.6577 28.93 36.5877 29 36.4477 29H35.6777C35.5377 29 35.4677 28.93 35.4677 28.79V22.07C35.4677 21.93 35.5377 21.86 35.6777 21.86H36.5177C36.6577 21.86 36.751 21.8787 36.7977 21.916C36.8537 21.944 36.9003 21.9953 36.9377 22.07L39.4577 27.46H39.5277ZM50.6626 23.89C50.6626 23.5727 50.5646 23.3207 50.3686 23.134C50.1819 22.938 49.9299 22.84 49.6126 22.84H47.8626C47.5452 22.84 47.2886 22.938 47.0926 23.134C46.9059 23.3207 46.8126 23.5727 46.8126 23.89V26.97C46.8126 27.2873 46.9059 27.544 47.0926 27.74C47.2886 27.9267 47.5452 28.02 47.8626 28.02H49.6126C49.9299 28.02 50.1819 27.9267 50.3686 27.74C50.5646 27.544 50.6626 27.2873 50.6626 26.97V23.89ZM51.8526 26.97C51.8526 27.67 51.6612 28.2067 51.2786 28.58C50.9052 28.9533 50.3499 29.14 49.6126 29.14H47.8626C47.1252 29.14 46.5652 28.9533 46.1826 28.58C45.8092 28.2067 45.6226 27.67 45.6226 26.97V23.89C45.6226 23.19 45.8092 22.6533 46.1826 22.28C46.5652 21.9067 47.1252 21.72 47.8626 21.72H49.6126C50.3499 21.72 50.9052 21.9067 51.2786 22.28C51.6612 22.6533 51.8526 23.19 51.8526 23.89V26.97ZM55.142 25.92V28.79C55.142 28.93 55.072 29 54.932 29H54.162C54.022 29 53.952 28.93 53.952 28.79V22.07C53.952 21.93 54.022 21.86 54.162 21.86H54.932C55.072 21.86 55.142 21.93 55.142 22.07V24.87H58.712V22.07C58.712 21.93 58.782 21.86 58.922 21.86H59.692C59.832 21.86 59.902 21.93 59.902 22.07V28.79C59.902 28.93 59.832 29 59.692 29H58.922C58.782 29 58.712 28.93 58.712 28.79V25.92H55.142ZM63.7515 29C63.6115 29 63.5415 28.93 63.5415 28.79V22.98H61.3715C61.2315 22.98 61.1615 22.91 61.1615 22.77V22.07C61.1615 21.93 61.2315 21.86 61.3715 21.86H66.9015C67.0415 21.86 67.1115 21.93 67.1115 22.07V22.77C67.1115 22.91 67.0415 22.98 66.9015 22.98H64.7315V28.79C64.7315 28.93 64.6615 29 64.5215 29H63.7515ZM69.5659 25.92V28.79C69.5659 28.93 69.4959 29 69.3559 29H68.5859C68.4459 29 68.3759 28.93 68.3759 28.79V22.07C68.3759 21.93 68.4459 21.86 68.5859 21.86H69.3559C69.4959 21.86 69.5659 21.93 69.5659 22.07V24.87H73.1359V22.07C73.1359 21.93 73.2059 21.86 73.3459 21.86H74.1159C74.2559 21.86 74.3259 21.93 74.3259 22.07V28.79C74.3259 28.93 74.2559 29 74.1159 29H73.3459C73.2059 29 73.1359 28.93 73.1359 28.79V25.92H69.5659ZM79.9253 27.88C80.2053 27.88 80.4246 27.8007 80.5833 27.642C80.7513 27.474 80.8353 27.25 80.8353 26.97V26.27C80.8353 25.99 80.7513 25.7707 80.5833 25.612C80.4246 25.444 80.2053 25.36 79.9253 25.36H77.7553V27.88H79.9253ZM76.7753 29C76.6353 29 76.5653 28.93 76.5653 28.79V22.07C76.5653 21.93 76.6353 21.86 76.7753 21.86H77.5453C77.6853 21.86 77.7553 21.93 77.7553 22.07V24.24H79.9253C81.3253 24.24 82.0253 24.9167 82.0253 26.27V26.97C82.0253 28.3233 81.3253 29 79.9253 29H76.7753ZM84.4053 28.79C84.4053 28.93 84.3353 29 84.1953 29H83.4253C83.2853 29 83.2153 28.93 83.2153 28.79V22.07C83.2153 21.93 83.2853 21.86 83.4253 21.86H84.1953C84.3353 21.86 84.4053 21.93 84.4053 22.07V28.79ZM91.4715 24.8V23.89C91.4715 23.5727 91.3735 23.3207 91.1775 23.134C90.9908 22.938 90.7388 22.84 90.4215 22.84H88.7415C88.4242 22.84 88.1675 22.938 87.9715 23.134C87.7848 23.3207 87.6915 23.5727 87.6915 23.89V24.8H91.4715ZM87.6915 25.92V26.97C87.6915 27.2873 87.7848 27.544 87.9715 27.74C88.1675 27.9267 88.4242 28.02 88.7415 28.02H90.4215C90.7388 28.02 90.9908 27.9267 91.1775 27.74C91.3735 27.544 91.4715 27.2873 91.4715 26.97V26.9C91.4715 26.76 91.5415 26.69 91.6815 26.69H92.4515C92.5915 26.69 92.6615 26.76 92.6615 26.9V26.97C92.6615 27.67 92.4702 28.2067 92.0875 28.58C91.7142 28.9533 91.1588 29.14 90.4215 29.14H88.7415C88.0042 29.14 87.4442 28.9533 87.0615 28.58C86.6882 28.2067 86.5015 27.67 86.5015 26.97V23.89C86.5015 23.19 86.6882 22.6533 87.0615 22.28C87.4442 21.9067 88.0042 21.72 88.7415 21.72H90.4215C91.1588 21.72 91.7142 21.9067 92.0875 22.28C92.4702 22.6533 92.6615 23.19 92.6615 23.89V25.71C92.6615 25.85 92.5915 25.92 92.4515 25.92H87.6915ZM102.003 22.07C102.031 21.9953 102.069 21.944 102.115 21.916C102.171 21.8787 102.251 21.86 102.353 21.86H103.193C103.343 21.86 103.389 21.93 103.333 22.07L100.603 29C100.407 29.4947 100.216 29.91 100.029 30.246C99.8426 30.582 99.642 30.8527 99.4273 31.058C99.2126 31.2727 98.9793 31.4267 98.7273 31.52C98.4753 31.6133 98.1906 31.66 97.8733 31.66H97.5933C97.4533 31.66 97.3833 31.59 97.3833 31.45V30.75C97.3833 30.61 97.4533 30.54 97.5933 30.54H97.8733C98.228 30.54 98.5173 30.4233 98.7413 30.19C98.9746 29.9567 99.1986 29.56 99.4133 29L96.6833 22.07C96.6273 21.93 96.674 21.86 96.8233 21.86H97.6633C97.766 21.86 97.8406 21.8787 97.8873 21.916C97.9433 21.944 97.9853 21.9953 98.0133 22.07L99.9733 27.32H100.043L102.003 22.07ZM105.738 26.97C105.738 27.2873 105.832 27.544 106.018 27.74C106.214 27.9267 106.471 28.02 106.788 28.02H108.398C108.716 28.02 108.968 27.9267 109.154 27.74C109.35 27.544 109.448 27.2873 109.448 26.97V26.62C109.448 26.48 109.518 26.41 109.658 26.41H110.428C110.568 26.41 110.638 26.48 110.638 26.62V26.97C110.638 27.67 110.447 28.2067 110.064 28.58C109.691 28.9533 109.136 29.14 108.398 29.14H106.788C106.051 29.14 105.491 28.9533 105.108 28.58C104.735 28.2067 104.548 27.67 104.548 26.97V23.89C104.548 23.19 104.735 22.6533 105.108 22.28C105.491 21.9067 106.051 21.72 106.788 21.72H108.398C109.136 21.72 109.691 21.9067 110.064 22.28C110.447 22.6533 110.638 23.19 110.638 23.89V24.24C110.638 24.38 110.568 24.45 110.428 24.45H109.658C109.518 24.45 109.448 24.38 109.448 24.24V23.89C109.448 23.5727 109.35 23.3207 109.154 23.134C108.968 22.938 108.716 22.84 108.398 22.84H106.788C106.471 22.84 106.214 22.938 106.018 23.134C105.832 23.3207 105.738 23.5727 105.738 23.89V26.97ZM114.074 27.11C113.934 27.81 113.696 28.3233 113.36 28.65C113.024 28.9767 112.539 29.14 111.904 29.14H111.694C111.554 29.14 111.484 29.07 111.484 28.93V28.23C111.484 28.09 111.554 28.02 111.694 28.02H111.904C112.147 28.02 112.352 27.9407 112.52 27.782C112.698 27.6233 112.819 27.3993 112.884 27.11L113.934 22.07C113.962 21.93 114.079 21.86 114.284 21.86H118.204C118.344 21.86 118.414 21.93 118.414 22.07V28.79C118.414 28.93 118.344 29 118.204 29H117.434C117.294 29 117.224 28.93 117.224 28.79V22.98H114.914L114.074 27.11ZM125.095 22.07C125.123 21.9953 125.16 21.944 125.207 21.916C125.263 21.8787 125.342 21.86 125.445 21.86H126.285C126.434 21.86 126.481 21.93 126.425 22.07L123.695 29C123.499 29.4947 123.308 29.91 123.121 30.246C122.934 30.582 122.734 30.8527 122.519 31.058C122.304 31.2727 122.071 31.4267 121.819 31.52C121.567 31.6133 121.282 31.66 120.965 31.66H120.685C120.545 31.66 120.475 31.59 120.475 31.45V30.75C120.475 30.61 120.545 30.54 120.685 30.54H120.965C121.32 30.54 121.609 30.4233 121.833 30.19C122.066 29.9567 122.29 29.56 122.505 29L119.775 22.07C119.719 21.93 119.766 21.86 119.915 21.86H120.755C120.858 21.86 120.932 21.8787 120.979 21.916C121.035 21.944 121.077 21.9953 121.105 22.07L123.065 27.32H123.135L125.095 22.07ZM127.99 29C127.85 29 127.78 28.93 127.78 28.79V22.07C127.78 21.93 127.85 21.86 127.99 21.86H132.61C132.75 21.86 132.82 21.93 132.82 22.07V22.77C132.82 22.91 132.75 22.98 132.61 22.98H128.97V28.79C128.97 28.93 128.9 29 128.76 29H127.99ZM139.826 21.86C139.966 21.86 140.036 21.93 140.036 22.07V28.79C140.036 28.93 139.966 29 139.826 29H139.056C138.916 29 138.846 28.93 138.846 28.79V23.68H138.776L135.416 28.79C135.37 28.8647 135.323 28.9207 135.276 28.958C135.23 28.986 135.136 29 134.996 29H134.156C134.016 29 133.946 28.93 133.946 28.79V22.07C133.946 21.93 134.016 21.86 134.156 21.86H134.926C135.066 21.86 135.136 21.93 135.136 22.07V27.18H135.206L138.566 22.07C138.613 21.9953 138.66 21.944 138.706 21.916C138.753 21.8787 138.846 21.86 138.986 21.86H139.826Z" fill="#7E7E82"/>
<path d="M20.55 45.45C20.41 45.45 20.34 45.38 20.34 45.24V44.75C20.34 44.61 20.41 44.54 20.55 44.54H22.16C22.6547 44.54 23.0327 44.4093 23.294 44.148C23.5647 43.8773 23.7 43.4947 23.7 43V42.51C23.7 42.0153 23.5647 41.6373 23.294 41.376C23.0327 41.1053 22.6547 40.97 22.16 40.97H19.64C19.1453 40.97 18.7627 41.1053 18.492 41.376C18.2307 41.6373 18.1 42.0153 18.1 42.51V42.93C18.1 43.07 18.03 43.14 17.89 43.14H17.4C17.26 43.14 17.19 43.07 17.19 42.93V42.51C17.19 41.7353 17.4047 41.1333 17.834 40.704C18.2633 40.2747 18.8653 40.06 19.64 40.06H22.16C22.9347 40.06 23.5367 40.2747 23.966 40.704C24.3953 41.1333 24.61 41.7353 24.61 42.51V43C24.61 43.4107 24.54 43.742 24.4 43.994C24.26 44.2367 24.106 44.4233 23.938 44.554C23.742 44.7127 23.5227 44.8247 23.28 44.89V44.96C23.5507 45.0347 23.7933 45.156 24.008 45.324C24.1947 45.4733 24.3627 45.6787 24.512 45.94C24.6707 46.2013 24.75 46.5513 24.75 46.99V47.69C24.75 48.4647 24.5353 49.0667 24.106 49.496C23.6767 49.9253 23.0747 50.14 22.3 50.14H19.5C18.7253 50.14 18.1233 49.9253 17.694 49.496C17.2647 49.0667 17.05 48.4647 17.05 47.69V47.27C17.05 47.13 17.12 47.06 17.26 47.06H17.75C17.89 47.06 17.96 47.13 17.96 47.27V47.69C17.96 48.1847 18.0907 48.5673 18.352 48.838C18.6227 49.0993 19.0053 49.23 19.5 49.23H22.3C22.7947 49.23 23.1727 49.0993 23.434 48.838C23.7047 48.5673 23.84 48.1847 23.84 47.69V46.99C23.84 46.4953 23.7047 46.1173 23.434 45.856C23.1727 45.5853 22.7947 45.45 22.3 45.45H20.55ZM27.8195 48.04C27.8195 48.432 27.9315 48.74 28.1555 48.964C28.3795 49.188 28.6875 49.3 29.0795 49.3H30.1995C30.6941 49.3 31.0861 49.1553 31.3755 48.866C31.6648 48.5767 31.8095 48.1847 31.8095 47.69V46.71H29.0795C28.6875 46.71 28.3795 46.822 28.1555 47.046C27.9315 47.27 27.8195 47.578 27.8195 47.97V48.04ZM26.9795 47.97C26.9795 47.298 27.1615 46.78 27.5255 46.416C27.8895 46.052 28.4075 45.87 29.0795 45.87H31.8095V44.89C31.8095 44.47 31.6928 44.1433 31.4595 43.91C31.2261 43.6767 30.8995 43.56 30.4795 43.56H29.5695C29.1495 43.56 28.8228 43.6767 28.5895 43.91C28.3561 44.1433 28.2395 44.47 28.2395 44.89C28.2395 45.03 28.1695 45.1 28.0295 45.1H27.6095C27.4695 45.1 27.3995 45.03 27.3995 44.89C27.3995 44.19 27.5861 43.6533 27.9595 43.28C28.3328 42.9067 28.8695 42.72 29.5695 42.72H30.4795C31.1795 42.72 31.7161 42.9067 32.0895 43.28C32.4628 43.6533 32.6495 44.19 32.6495 44.89V49.79C32.6495 49.93 32.5795 50 32.4395 50H32.0195C31.8795 50 31.8095 49.93 31.8095 49.79V49.23H31.7395C31.6461 49.4073 31.5295 49.5613 31.3895 49.692C31.2588 49.804 31.0955 49.9067 30.8995 50C30.7128 50.0933 30.4795 50.14 30.1995 50.14H29.0795C28.4075 50.14 27.8895 49.958 27.5255 49.594C27.1615 49.23 26.9795 48.712 26.9795 48.04V47.97ZM39.0767 50C38.9741 50 38.8994 49.986 38.8527 49.958C38.8061 49.9207 38.7641 49.8647 38.7267 49.79L36.1367 44.4H36.0667V49.79C36.0667 49.93 35.9967 50 35.8567 50H35.4367C35.2967 50 35.2267 49.93 35.2267 49.79V43.07C35.2267 42.93 35.2967 42.86 35.4367 42.86H35.9967C36.0994 42.86 36.1741 42.8787 36.2207 42.916C36.2674 42.944 36.3094 42.9953 36.3467 43.07L39.1467 48.88H39.2167L42.0167 43.07C42.0541 42.9953 42.0961 42.944 42.1427 42.916C42.1894 42.8787 42.2641 42.86 42.3667 42.86H42.9267C43.0667 42.86 43.1367 42.93 43.1367 43.07V49.79C43.1367 49.93 43.0667 50 42.9267 50H42.5067C42.3667 50 42.2967 49.93 42.2967 49.79V44.4H42.2267L39.6367 49.79C39.5994 49.8647 39.5574 49.9207 39.5107 49.958C39.4641 49.986 39.3894 50 39.2867 50H39.0767ZM51.4616 47.97C51.4616 48.67 51.275 49.2067 50.9016 49.58C50.5283 49.9533 49.9916 50.14 49.2916 50.14H47.7516C47.0516 50.14 46.515 49.9533 46.1416 49.58C45.7683 49.2067 45.5816 48.67 45.5816 47.97V44.89C45.5816 44.19 45.7683 43.6533 46.1416 43.28C46.515 42.9067 47.0516 42.72 47.7516 42.72H49.2916C49.9916 42.72 50.5283 42.9067 50.9016 43.28C51.275 43.6533 51.4616 44.19 51.4616 44.89V46.57C51.4616 46.71 51.3916 46.78 51.2516 46.78H46.4216V47.97C46.4216 48.39 46.5383 48.7167 46.7716 48.95C47.005 49.1833 47.3316 49.3 47.7516 49.3H49.2916C49.7116 49.3 50.0383 49.1833 50.2716 48.95C50.505 48.7167 50.6216 48.39 50.6216 47.97C50.6216 47.83 50.6916 47.76 50.8316 47.76H51.2516C51.3916 47.76 51.4616 47.83 51.4616 47.97ZM46.4216 45.94H50.6216V44.89C50.6216 44.47 50.505 44.1433 50.2716 43.91C50.0383 43.6767 49.7116 43.56 49.2916 43.56H47.7516C47.3316 43.56 47.005 43.6767 46.7716 43.91C46.5383 44.1433 46.4216 44.47 46.4216 44.89V45.94ZM59.366 42.86C59.506 42.86 59.576 42.93 59.576 43.07V49.79C59.576 49.93 59.506 50 59.366 50H58.946C58.806 50 58.736 49.93 58.736 49.79V46.78H54.746V49.79C54.746 49.93 54.676 50 54.536 50H54.116C53.976 50 53.906 49.93 53.906 49.79V43.07C53.906 42.93 53.976 42.86 54.116 42.86H54.536C54.676 42.86 54.746 42.93 54.746 43.07V45.94H58.736V43.07C58.736 42.93 58.806 42.86 58.946 42.86H59.366ZM62.6488 48.04C62.6488 48.432 62.7608 48.74 62.9848 48.964C63.2088 49.188 63.5168 49.3 63.9088 49.3H65.0288C65.5234 49.3 65.9154 49.1553 66.2048 48.866C66.4941 48.5767 66.6388 48.1847 66.6388 47.69V46.71H63.9088C63.5168 46.71 63.2088 46.822 62.9848 47.046C62.7608 47.27 62.6488 47.578 62.6488 47.97V48.04ZM61.8088 47.97C61.8088 47.298 61.9908 46.78 62.3548 46.416C62.7188 46.052 63.2368 45.87 63.9088 45.87H66.6388V44.89C66.6388 44.47 66.5221 44.1433 66.2888 43.91C66.0554 43.6767 65.7288 43.56 65.3088 43.56H64.3988C63.9788 43.56 63.6521 43.6767 63.4188 43.91C63.1854 44.1433 63.0688 44.47 63.0688 44.89C63.0688 45.03 62.9988 45.1 62.8588 45.1H62.4388C62.2988 45.1 62.2288 45.03 62.2288 44.89C62.2288 44.19 62.4154 43.6533 62.7888 43.28C63.1621 42.9067 63.6988 42.72 64.3988 42.72H65.3088C66.0088 42.72 66.5454 42.9067 66.9188 43.28C67.2921 43.6533 67.4788 44.19 67.4788 44.89V49.79C67.4788 49.93 67.4088 50 67.2688 50H66.8488C66.7088 50 66.6388 49.93 66.6388 49.79V49.23H66.5688C66.4754 49.4073 66.3588 49.5613 66.2188 49.692C66.0881 49.804 65.9248 49.9067 65.7288 50C65.5421 50.0933 65.3088 50.14 65.0288 50.14H63.9088C63.2368 50.14 62.7188 49.958 62.3548 49.594C61.9908 49.23 61.8088 48.712 61.8088 48.04V47.97ZM78.4504 42.86C78.5904 42.86 78.6604 42.93 78.6604 43.07V49.79C78.6604 49.93 78.5904 50 78.4504 50H78.0304C77.8904 50 77.8204 49.93 77.8204 49.79V43.7H73.8304V49.79C73.8304 49.93 73.7604 50 73.6204 50H73.2004C73.0604 50 72.9904 49.93 72.9904 49.79V43.07C72.9904 42.93 73.0604 42.86 73.2004 42.86H78.4504ZM84.8831 42.72C85.5831 42.72 86.1198 42.9067 86.4931 43.28C86.8665 43.6533 87.0531 44.19 87.0531 44.89V47.83C87.0531 48.53 86.8665 49.0667 86.4931 49.44C86.1198 49.8133 85.5831 50 84.8831 50H82.0831V52.45C82.0831 52.59 82.0131 52.66 81.8731 52.66H81.4531C81.3131 52.66 81.2431 52.59 81.2431 52.45V43.07C81.2431 42.93 81.3131 42.86 81.4531 42.86H81.8731C82.0131 42.86 82.0831 42.93 82.0831 43.07V43.63H82.1531C82.2371 43.462 82.3538 43.3127 82.5031 43.182C82.6245 43.07 82.7831 42.9673 82.9791 42.874C83.1751 42.7713 83.4131 42.72 83.6931 42.72H84.8831ZM84.8831 49.16C85.3031 49.16 85.6298 49.0433 85.8631 48.81C86.0965 48.5767 86.2131 48.25 86.2131 47.83V44.89C86.2131 44.47 86.0965 44.1433 85.8631 43.91C85.6298 43.6767 85.3031 43.56 84.8831 43.56H83.6931C83.1985 43.56 82.8065 43.7047 82.5171 43.994C82.2278 44.2833 82.0831 44.6753 82.0831 45.17V49.16H84.8831ZM94.5359 44.89C94.5359 44.47 94.4192 44.1433 94.1859 43.91C93.9525 43.6767 93.6259 43.56 93.2059 43.56H91.5259C91.1059 43.56 90.7792 43.6767 90.5459 43.91C90.3125 44.1433 90.1959 44.47 90.1959 44.89V47.97C90.1959 48.39 90.3125 48.7167 90.5459 48.95C90.7792 49.1833 91.1059 49.3 91.5259 49.3H93.2059C93.6259 49.3 93.9525 49.1833 94.1859 48.95C94.4192 48.7167 94.5359 48.39 94.5359 47.97V44.89ZM95.3759 47.97C95.3759 48.67 95.1892 49.2067 94.8159 49.58C94.4425 49.9533 93.9059 50.14 93.2059 50.14H91.5259C90.8259 50.14 90.2892 49.9533 89.9159 49.58C89.5425 49.2067 89.3559 48.67 89.3559 47.97V44.89C89.3559 44.19 89.5425 43.6533 89.9159 43.28C90.2892 42.9067 90.8259 42.72 91.5259 42.72H93.2059C93.9059 42.72 94.4425 42.9067 94.8159 43.28C95.1892 43.6533 95.3759 44.19 95.3759 44.89V47.97ZM102.507 42.86C102.647 42.86 102.717 42.93 102.717 43.07V43.49C102.717 43.63 102.647 43.7 102.507 43.7H98.657V49.79C98.657 49.93 98.587 50 98.447 50H98.027C97.887 50 97.817 49.93 97.817 49.79V43.07C97.817 42.93 97.887 42.86 98.027 42.86H102.507ZM107.741 42.72C108.441 42.72 108.978 42.9067 109.351 43.28C109.724 43.6533 109.911 44.19 109.911 44.89V47.83C109.911 48.53 109.724 49.0667 109.351 49.44C108.978 49.8133 108.441 50 107.741 50H104.941V52.45C104.941 52.59 104.871 52.66 104.731 52.66H104.311C104.171 52.66 104.101 52.59 104.101 52.45V43.07C104.101 42.93 104.171 42.86 104.311 42.86H104.731C104.871 42.86 104.941 42.93 104.941 43.07V43.63H105.011C105.095 43.462 105.212 43.3127 105.361 43.182C105.482 43.07 105.641 42.9673 105.837 42.874C106.033 42.7713 106.271 42.72 106.551 42.72H107.741ZM107.741 49.16C108.161 49.16 108.488 49.0433 108.721 48.81C108.954 48.5767 109.071 48.25 109.071 47.83V44.89C109.071 44.47 108.954 44.1433 108.721 43.91C108.488 43.6767 108.161 43.56 107.741 43.56H106.551C106.056 43.56 105.664 43.7047 105.375 43.994C105.086 44.2833 104.941 44.6753 104.941 45.17V49.16H107.741ZM112.844 48.04C112.844 48.432 112.956 48.74 113.18 48.964C113.404 49.188 113.712 49.3 114.104 49.3H115.224C115.718 49.3 116.11 49.1553 116.4 48.866C116.689 48.5767 116.834 48.1847 116.834 47.69V46.71H114.104C113.712 46.71 113.404 46.822 113.18 47.046C112.956 47.27 112.844 47.578 112.844 47.97V48.04ZM112.004 47.97C112.004 47.298 112.186 46.78 112.55 46.416C112.914 46.052 113.432 45.87 114.104 45.87H116.834V44.89C116.834 44.47 116.717 44.1433 116.484 43.91C116.25 43.6767 115.924 43.56 115.504 43.56H114.594C114.174 43.56 113.847 43.6767 113.614 43.91C113.38 44.1433 113.264 44.47 113.264 44.89C113.264 45.03 113.194 45.1 113.054 45.1H112.634C112.494 45.1 112.424 45.03 112.424 44.89C112.424 44.19 112.61 43.6533 112.984 43.28C113.357 42.9067 113.894 42.72 114.594 42.72H115.504C116.204 42.72 116.74 42.9067 117.114 43.28C117.487 43.6533 117.674 44.19 117.674 44.89V49.79C117.674 49.93 117.604 50 117.464 50H117.044C116.904 50 116.834 49.93 116.834 49.79V49.23H116.764C116.67 49.4073 116.554 49.5613 116.414 49.692C116.283 49.804 116.12 49.9067 115.924 50C115.737 50.0933 115.504 50.14 115.224 50.14H114.104C113.432 50.14 112.914 49.958 112.55 49.594C112.186 49.23 112.004 48.712 112.004 48.04V47.97ZM124.101 50C123.998 50 123.924 49.986 123.877 49.958C123.83 49.9207 123.788 49.8647 123.751 49.79L121.161 44.4H121.091V49.79C121.091 49.93 121.021 50 120.881 50H120.461C120.321 50 120.251 49.93 120.251 49.79V43.07C120.251 42.93 120.321 42.86 120.461 42.86H121.021C121.124 42.86 121.198 42.8787 121.245 42.916C121.292 42.944 121.334 42.9953 121.371 43.07L124.171 48.88H124.241L127.041 43.07C127.078 42.9953 127.12 42.944 127.167 42.916C127.214 42.8787 127.288 42.86 127.391 42.86H127.951C128.091 42.86 128.161 42.93 128.161 43.07V49.79C128.161 49.93 128.091 50 127.951 50H127.531C127.391 50 127.321 49.93 127.321 49.79V44.4H127.251L124.661 49.79C124.624 49.8647 124.582 49.9207 124.535 49.958C124.488 49.986 124.414 50 124.311 50H124.101ZM134.596 50C134.493 50 134.419 49.986 134.372 49.958C134.325 49.9207 134.283 49.8647 134.246 49.79L131.656 44.4H131.586V49.79C131.586 49.93 131.516 50 131.376 50H130.956C130.816 50 130.746 49.93 130.746 49.79V43.07C130.746 42.93 130.816 42.86 130.956 42.86H131.516C131.619 42.86 131.693 42.8787 131.74 42.916C131.787 42.944 131.829 42.9953 131.866 43.07L134.666 48.88H134.736L137.536 43.07C137.573 42.9953 137.615 42.944 137.662 42.916C137.709 42.8787 137.783 42.86 137.886 42.86H138.446C138.586 42.86 138.656 42.93 138.656 43.07V49.79C138.656 49.93 138.586 50 138.446 50H138.026C137.886 50 137.816 49.93 137.816 49.79V44.4H137.746L135.156 49.79C135.119 49.8647 135.077 49.9207 135.03 49.958C134.983 49.986 134.909 50 134.806 50H134.596ZM146.701 42.86C146.841 42.86 146.911 42.93 146.911 43.07V49.79C146.911 49.93 146.841 50 146.701 50H146.281C146.141 50 146.071 49.93 146.071 49.79V46.78H142.081V49.79C142.081 49.93 142.011 50 141.871 50H141.451C141.311 50 141.241 49.93 141.241 49.79V43.07C141.241 42.93 141.311 42.86 141.451 42.86H141.871C142.011 42.86 142.081 42.93 142.081 43.07V45.94H146.071V43.07C146.071 42.93 146.141 42.86 146.281 42.86H146.701ZM154.534 44.89C154.534 44.47 154.417 44.1433 154.184 43.91C153.95 43.6767 153.624 43.56 153.204 43.56H151.524C151.104 43.56 150.777 43.6767 150.544 43.91C150.31 44.1433 150.194 44.47 150.194 44.89V47.97C150.194 48.39 150.31 48.7167 150.544 48.95C150.777 49.1833 151.104 49.3 151.524 49.3H153.204C153.624 49.3 153.95 49.1833 154.184 48.95C154.417 48.7167 154.534 48.39 154.534 47.97V44.89ZM155.374 47.97C155.374 48.67 155.187 49.2067 154.814 49.58C154.44 49.9533 153.904 50.14 153.204 50.14H151.524C150.824 50.14 150.287 49.9533 149.914 49.58C149.54 49.2067 149.354 48.67 149.354 47.97V44.89C149.354 44.19 149.54 43.6533 149.914 43.28C150.287 42.9067 150.824 42.72 151.524 42.72H153.204C153.904 42.72 154.44 42.9067 154.814 43.28C155.187 43.6533 155.374 44.19 155.374 44.89V47.97ZM162.505 42.86C162.645 42.86 162.715 42.93 162.715 43.07V43.49C162.715 43.63 162.645 43.7 162.505 43.7H158.655V49.79C158.655 49.93 158.585 50 158.445 50H158.025C157.885 50 157.815 49.93 157.815 49.79V43.07C157.815 42.93 157.885 42.86 158.025 42.86H162.505ZM169.139 44.89C169.139 44.47 169.022 44.1433 168.789 43.91C168.555 43.6767 168.229 43.56 167.809 43.56H166.129C165.709 43.56 165.382 43.6767 165.149 43.91C164.915 44.1433 164.799 44.47 164.799 44.89V47.97C164.799 48.39 164.915 48.7167 165.149 48.95C165.382 49.1833 165.709 49.3 166.129 49.3H167.809C168.229 49.3 168.555 49.1833 168.789 48.95C169.022 48.7167 169.139 48.39 169.139 47.97V44.89ZM169.979 47.97C169.979 48.67 169.792 49.2067 169.419 49.58C169.045 49.9533 168.509 50.14 167.809 50.14H166.129C165.429 50.14 164.892 49.9533 164.519 49.58C164.145 49.2067 163.959 48.67 163.959 47.97V44.89C163.959 44.19 164.145 43.6533 164.519 43.28C164.892 42.9067 165.429 42.72 166.129 42.72H167.809C168.509 42.72 169.045 42.9067 169.419 43.28C169.792 43.6533 169.979 44.19 169.979 44.89V47.97ZM22.23 62.89C22.23 62.47 22.1133 62.1433 21.88 61.91C21.6467 61.6767 21.32 61.56 20.9 61.56H19.22C18.8 61.56 18.4733 61.6767 18.24 61.91C18.0067 62.1433 17.89 62.47 17.89 62.89V65.97C17.89 66.39 18.0067 66.7167 18.24 66.95C18.4733 67.1833 18.8 67.3 19.22 67.3H20.9C21.32 67.3 21.6467 67.1833 21.88 66.95C22.1133 66.7167 22.23 66.39 22.23 65.97V62.89ZM23.07 65.97C23.07 66.67 22.8833 67.2067 22.51 67.58C22.1367 67.9533 21.6 68.14 20.9 68.14H19.22C18.52 68.14 17.9833 67.9533 17.61 67.58C17.2367 67.2067 17.05 66.67 17.05 65.97V62.89C17.05 62.19 17.2367 61.6533 17.61 61.28C17.9833 60.9067 18.52 60.72 19.22 60.72H20.9C21.6 60.72 22.1367 60.9067 22.51 61.28C22.8833 61.6533 23.07 62.19 23.07 62.89V65.97ZM31.1811 65.97C31.1811 66.67 30.9944 67.2067 30.6211 67.58C30.2478 67.9533 29.7111 68.14 29.0111 68.14H27.5411C26.8411 68.14 26.3044 67.9533 25.9311 67.58C25.5578 67.2067 25.3711 66.67 25.3711 65.97V61.42C25.3711 60.748 25.5484 60.23 25.9031 59.866C26.2671 59.502 26.7664 59.2967 27.4011 59.25L29.1511 59.11C29.7578 59.054 30.0611 58.774 30.0611 58.27C30.0611 58.13 30.1311 58.06 30.2711 58.06H30.6911C30.8311 58.06 30.9011 58.13 30.9011 58.27C30.9011 59.306 30.3411 59.866 29.2211 59.95L27.4711 60.09C27.0791 60.118 26.7711 60.2487 26.5471 60.482C26.3231 60.7153 26.2111 61.028 26.2111 61.42V62.12H29.0111C29.7111 62.12 30.2478 62.3067 30.6211 62.68C30.9944 63.0533 31.1811 63.59 31.1811 64.29V65.97ZM26.2111 62.96V65.97C26.2111 66.39 26.3278 66.7167 26.5611 66.95C26.7944 67.1833 27.1211 67.3 27.5411 67.3H29.0111C29.4311 67.3 29.7578 67.1833 29.9911 66.95C30.2244 66.7167 30.3411 66.39 30.3411 65.97V64.29C30.3411 63.87 30.2244 63.5433 29.9911 63.31C29.7578 63.0767 29.4311 62.96 29.0111 62.96H26.2111ZM39.2167 65.97C39.2167 66.67 39.0301 67.2067 38.6567 67.58C38.2834 67.9533 37.7467 68.14 37.0467 68.14H35.5067C34.8067 68.14 34.2701 67.9533 33.8967 67.58C33.5234 67.2067 33.3367 66.67 33.3367 65.97V62.89C33.3367 62.19 33.5234 61.6533 33.8967 61.28C34.2701 60.9067 34.8067 60.72 35.5067 60.72H37.0467C37.7467 60.72 38.2834 60.9067 38.6567 61.28C39.0301 61.6533 39.2167 62.19 39.2167 62.89V64.57C39.2167 64.71 39.1467 64.78 39.0067 64.78H34.1767V65.97C34.1767 66.39 34.2934 66.7167 34.5267 66.95C34.7601 67.1833 35.0867 67.3 35.5067 67.3H37.0467C37.4667 67.3 37.7934 67.1833 38.0267 66.95C38.2601 66.7167 38.3767 66.39 38.3767 65.97C38.3767 65.83 38.4467 65.76 38.5867 65.76H39.0067C39.1467 65.76 39.2167 65.83 39.2167 65.97ZM34.1767 63.94H38.3767V62.89C38.3767 62.47 38.2601 62.1433 38.0267 61.91C37.7934 61.6767 37.4667 61.56 37.0467 61.56H35.5067C35.0867 61.56 34.7601 61.6767 34.5267 61.91C34.2934 62.1433 34.1767 62.47 34.1767 62.89V63.94ZM47.4011 65.97C47.4011 66.67 47.2144 67.2067 46.8411 67.58C46.4678 67.9533 45.9311 68.14 45.2311 68.14H43.6911C42.9911 68.14 42.4544 67.9533 42.0811 67.58C41.7078 67.2067 41.5211 66.67 41.5211 65.97V62.89C41.5211 62.19 41.7078 61.6533 42.0811 61.28C42.4544 60.9067 42.9911 60.72 43.6911 60.72H45.2311C45.9311 60.72 46.4678 60.9067 46.8411 61.28C47.2144 61.6533 47.4011 62.19 47.4011 62.89V63.1C47.4011 63.24 47.3311 63.31 47.1911 63.31H46.7711C46.6311 63.31 46.5611 63.24 46.5611 63.1V62.89C46.5611 62.47 46.4444 62.1433 46.2111 61.91C45.9778 61.6767 45.6511 61.56 45.2311 61.56H43.6911C43.2711 61.56 42.9444 61.6767 42.7111 61.91C42.4778 62.1433 42.3611 62.47 42.3611 62.89V65.97C42.3611 66.39 42.4778 66.7167 42.7111 66.95C42.9444 67.1833 43.2711 67.3 43.6911 67.3H45.2311C45.6511 67.3 45.9778 67.1833 46.2111 66.95C46.4444 66.7167 46.5611 66.39 46.5611 65.97V65.76C46.5611 65.62 46.6311 65.55 46.7711 65.55H47.1911C47.3311 65.55 47.4011 65.62 47.4011 65.76V65.97ZM55.1551 60.86C55.2951 60.86 55.3651 60.93 55.3651 61.07V67.79C55.3651 67.93 55.2951 68 55.1551 68H54.7351C54.5951 68 54.5251 67.93 54.5251 67.79V61.7H50.5351V67.79C50.5351 67.93 50.4651 68 50.3251 68H49.9051C49.7651 68 49.6951 67.93 49.6951 67.79V61.07C49.6951 60.93 49.7651 60.86 49.9051 60.86H55.1551ZM63.6878 65.97C63.6878 66.67 63.5011 67.2067 63.1278 67.58C62.7545 67.9533 62.2178 68.14 61.5178 68.14H59.9778C59.2778 68.14 58.7411 67.9533 58.3678 67.58C57.9945 67.2067 57.8078 66.67 57.8078 65.97V62.89C57.8078 62.19 57.9945 61.6533 58.3678 61.28C58.7411 60.9067 59.2778 60.72 59.9778 60.72H61.5178C62.2178 60.72 62.7545 60.9067 63.1278 61.28C63.5011 61.6533 63.6878 62.19 63.6878 62.89V64.57C63.6878 64.71 63.6178 64.78 63.4778 64.78H58.6478V65.97C58.6478 66.39 58.7645 66.7167 58.9978 66.95C59.2311 67.1833 59.5578 67.3 59.9778 67.3H61.5178C61.9378 67.3 62.2645 67.1833 62.4978 66.95C62.7311 66.7167 62.8478 66.39 62.8478 65.97C62.8478 65.83 62.9178 65.76 63.0578 65.76H63.4778C63.6178 65.76 63.6878 65.83 63.6878 65.97ZM58.6478 63.94H62.8478V62.89C62.8478 62.47 62.7311 62.1433 62.4978 61.91C62.2645 61.6767 61.9378 61.56 61.5178 61.56H59.9778C59.5578 61.56 59.2311 61.6767 58.9978 61.91C58.7645 62.1433 58.6478 62.47 58.6478 62.89V63.94ZM65.9922 61.07C65.9922 60.93 66.0622 60.86 66.2022 60.86H66.6222C66.7622 60.86 66.8322 60.93 66.8322 61.07V63.45C66.8322 63.87 66.9489 64.1967 67.1822 64.43C67.4155 64.6633 67.7422 64.78 68.1622 64.78H70.6822V61.07C70.6822 60.93 70.7522 60.86 70.8922 60.86H71.3122C71.4522 60.86 71.5222 60.93 71.5222 61.07V67.79C71.5222 67.93 71.4522 68 71.3122 68H70.8922C70.7522 68 70.6822 67.93 70.6822 67.79V65.62H68.1622C67.4622 65.62 66.9255 65.4333 66.5522 65.06C66.1789 64.6867 65.9922 64.15 65.9922 63.45V61.07ZM79.8378 65.97C79.8378 66.67 79.6511 67.2067 79.2778 67.58C78.9045 67.9533 78.3678 68.14 77.6678 68.14H76.1278C75.4278 68.14 74.8911 67.9533 74.5178 67.58C74.1445 67.2067 73.9578 66.67 73.9578 65.97V62.89C73.9578 62.19 74.1445 61.6533 74.5178 61.28C74.8911 60.9067 75.4278 60.72 76.1278 60.72H77.6678C78.3678 60.72 78.9045 60.9067 79.2778 61.28C79.6511 61.6533 79.8378 62.19 79.8378 62.89V64.57C79.8378 64.71 79.7678 64.78 79.6278 64.78H74.7978V65.97C74.7978 66.39 74.9145 66.7167 75.1478 66.95C75.3811 67.1833 75.7078 67.3 76.1278 67.3H77.6678C78.0878 67.3 78.4145 67.1833 78.6478 66.95C78.8811 66.7167 78.9978 66.39 78.9978 65.97C78.9978 65.83 79.0678 65.76 79.2078 65.76H79.6278C79.7678 65.76 79.8378 65.83 79.8378 65.97ZM74.7978 63.94H78.9978V62.89C78.9978 62.47 78.8811 62.1433 78.6478 61.91C78.4145 61.6767 78.0878 61.56 77.6678 61.56H76.1278C75.7078 61.56 75.3811 61.6767 75.1478 61.91C74.9145 62.1433 74.7978 62.47 74.7978 62.89V63.94ZM87.7422 60.86C87.8822 60.86 87.9522 60.93 87.9522 61.07V67.79C87.9522 67.93 87.8822 68 87.7422 68H87.3222C87.1822 68 87.1122 67.93 87.1122 67.79V64.78H83.1222V67.79C83.1222 67.93 83.0522 68 82.9122 68H82.4922C82.3522 68 82.2822 67.93 82.2822 67.79V61.07C82.2822 60.93 82.3522 60.86 82.4922 60.86H82.9122C83.0522 60.86 83.1222 60.93 83.1222 61.07V63.94H87.1122V61.07C87.1122 60.93 87.1822 60.86 87.3222 60.86H87.7422ZM95.4349 62.12L91.6549 67.79C91.6083 67.8647 91.5616 67.9207 91.5149 67.958C91.4683 67.986 91.3749 68 91.2349 68H90.7449C90.6049 68 90.5349 67.93 90.5349 67.79V61.07C90.5349 60.93 90.6049 60.86 90.7449 60.86H91.1649C91.3049 60.86 91.3749 60.93 91.3749 61.07V66.74H91.4449L95.2249 61.07C95.2716 60.9953 95.3183 60.944 95.3649 60.916C95.4116 60.8787 95.5049 60.86 95.6449 60.86H96.1349C96.2749 60.86 96.3449 60.93 96.3449 61.07V67.79C96.3449 67.93 96.2749 68 96.1349 68H95.7149C95.5749 68 95.5049 67.93 95.5049 67.79V62.12H95.4349ZM98.5744 62.96C98.5744 62.288 98.7564 61.77 99.1204 61.406C99.4844 61.042 100.002 60.86 100.674 60.86H103.894C104.034 60.86 104.104 60.93 104.104 61.07V67.79C104.104 67.93 104.034 68 103.894 68H103.474C103.334 68 103.264 67.93 103.264 67.79V65.48H100.884L99.6244 67.79C99.5777 67.8647 99.5357 67.9207 99.4984 67.958C99.4704 67.986 99.419 68 99.3444 68H98.7844C98.7097 68 98.6584 67.986 98.6304 67.958C98.6024 67.9207 98.607 67.8647 98.6444 67.79L99.9744 65.41C99.713 65.354 99.4797 65.242 99.2744 65.074C99.097 64.934 98.9337 64.7333 98.7844 64.472C98.6444 64.2013 98.5744 63.8373 98.5744 63.38V62.96ZM103.264 64.64V61.7H100.674C100.282 61.7 99.9744 61.812 99.7504 62.036C99.5264 62.26 99.4144 62.568 99.4144 62.96V63.38C99.4144 63.772 99.5264 64.08 99.7504 64.304C99.9744 64.528 100.282 64.64 100.674 64.64H103.264Z" fill="#1B1C21"/>
<path opacity="0.721842" d="M17.61 101C17.47 101 17.4 100.93 17.4 100.79V91.41C17.4 91.27 17.47 91.2 17.61 91.2H18.52C18.66 91.2 18.73 91.27 18.73 91.41V99.74H23.63V91.41C23.63 91.27 23.7 91.2 23.84 91.2H24.75C24.89 91.2 24.96 91.27 24.96 91.41V99.95L26.36 101.49C26.3973 101.527 26.416 101.574 26.416 101.63C26.416 101.686 26.3973 101.733 26.36 101.77L25.66 102.4C25.5573 102.484 25.464 102.484 25.38 102.4L24.12 101H17.61ZM32.5047 96.8V95.89C32.5047 95.5727 32.4067 95.3207 32.2107 95.134C32.024 94.938 31.772 94.84 31.4547 94.84H29.7747C29.4574 94.84 29.2007 94.938 29.0047 95.134C28.818 95.3207 28.7247 95.5727 28.7247 95.89V96.8H32.5047ZM28.7247 97.92V98.97C28.7247 99.2873 28.818 99.544 29.0047 99.74C29.2007 99.9267 29.4574 100.02 29.7747 100.02H31.4547C31.772 100.02 32.024 99.9267 32.2107 99.74C32.4067 99.544 32.5047 99.2873 32.5047 98.97V98.9C32.5047 98.76 32.5747 98.69 32.7147 98.69H33.4847C33.6247 98.69 33.6947 98.76 33.6947 98.9V98.97C33.6947 99.67 33.5034 100.207 33.1207 100.58C32.7474 100.953 32.192 101.14 31.4547 101.14H29.7747C29.0374 101.14 28.4774 100.953 28.0947 100.58C27.7214 100.207 27.5347 99.67 27.5347 98.97V95.89C27.5347 95.19 27.7214 94.6533 28.0947 94.28C28.4774 93.9067 29.0374 93.72 29.7747 93.72H31.4547C32.192 93.72 32.7474 93.9067 33.1207 94.28C33.5034 94.6533 33.6947 95.19 33.6947 95.89V97.71C33.6947 97.85 33.6247 97.92 33.4847 97.92H28.7247ZM36.9858 97.92V100.79C36.9858 100.93 36.9158 101 36.7758 101H36.0058C35.8658 101 35.7958 100.93 35.7958 100.79V94.07C35.7958 93.93 35.8658 93.86 36.0058 93.86H36.7758C36.9158 93.86 36.9858 93.93 36.9858 94.07V96.87H40.5558V94.07C40.5558 93.93 40.6258 93.86 40.7658 93.86H41.5358C41.6758 93.86 41.7458 93.93 41.7458 94.07V100.79C41.7458 100.93 41.6758 101 41.5358 101H40.7658C40.6258 101 40.5558 100.93 40.5558 100.79V97.92H36.9858ZM43.7052 98.83C43.7052 97.4767 44.4052 96.8 45.8052 96.8H48.3952V95.89C48.3952 95.5727 48.2972 95.3207 48.1012 95.134C47.9146 94.938 47.6626 94.84 47.3452 94.84H46.3652C46.0479 94.84 45.7912 94.938 45.5952 95.134C45.4086 95.3207 45.3152 95.5727 45.3152 95.89C45.3152 96.03 45.2452 96.1 45.1052 96.1H44.3352C44.1952 96.1 44.1252 96.03 44.1252 95.89C44.1252 95.19 44.3119 94.6533 44.6852 94.28C45.0679 93.9067 45.6279 93.72 46.3652 93.72H47.3452C48.0826 93.72 48.6379 93.9067 49.0112 94.28C49.3939 94.6533 49.5852 95.19 49.5852 95.89V100.79C49.5852 100.93 49.5152 101 49.3752 101H48.6052C48.4652 101 48.3952 100.93 48.3952 100.79V100.3H48.3252C48.2506 100.459 48.1432 100.599 48.0032 100.72C47.8819 100.823 47.7232 100.916 47.5272 101C47.3312 101.093 47.0839 101.14 46.7852 101.14H45.8052C44.4052 101.14 43.7052 100.463 43.7052 99.11V98.83ZM44.8952 99.11C44.8952 99.39 44.9746 99.614 45.1332 99.782C45.3012 99.9407 45.5252 100.02 45.8052 100.02H46.9252C47.3452 100.02 47.6952 99.88 47.9752 99.6C48.2552 99.32 48.3952 98.97 48.3952 98.55V97.92H45.8052C45.5252 97.92 45.3012 98.004 45.1332 98.172C44.9746 98.3307 44.8952 98.55 44.8952 98.83V99.11Z" fill="#7E7E82"/>
<path d="M18.59 113.11H16.49C16.35 113.11 16.28 113.04 16.28 112.9V112.41C16.28 112.27 16.35 112.2 16.49 112.2H19.29C19.43 112.2 19.5 112.27 19.5 112.41V121.79C19.5 121.93 19.43 122 19.29 122H18.8C18.66 122 18.59 121.93 18.59 121.79V113.11ZM32.0209 114.51C32.0209 114.015 31.8856 113.637 31.6149 113.376C31.3536 113.105 30.9756 112.97 30.4809 112.97H27.8909C27.3963 112.97 27.0136 113.105 26.7429 113.376C26.4816 113.637 26.3509 114.015 26.3509 114.51V119.69C26.3509 120.185 26.4816 120.567 26.7429 120.838C27.0136 121.099 27.3963 121.23 27.8909 121.23H30.4809C30.9756 121.23 31.3536 121.099 31.6149 120.838C31.8856 120.567 32.0209 120.185 32.0209 119.69V114.51ZM32.9309 119.69C32.9309 120.465 32.7163 121.067 32.2869 121.496C31.8576 121.925 31.2556 122.14 30.4809 122.14H27.8909C27.1163 122.14 26.5143 121.925 26.0849 121.496C25.6556 121.067 25.4409 120.465 25.4409 119.69V114.51C25.4409 113.735 25.6556 113.133 26.0849 112.704C26.5143 112.275 27.1163 112.06 27.8909 112.06H30.4809C31.2556 112.06 31.8576 112.275 32.2869 112.704C32.7163 113.133 32.9309 113.735 32.9309 114.51V119.69ZM42.3655 114.51C42.3655 114.015 42.2301 113.637 41.9595 113.376C41.6981 113.105 41.3201 112.97 40.8255 112.97H38.2355C37.7408 112.97 37.3581 113.105 37.0875 113.376C36.8261 113.637 36.6955 114.015 36.6955 114.51V119.69C36.6955 120.185 36.8261 120.567 37.0875 120.838C37.3581 121.099 37.7408 121.23 38.2355 121.23H40.8255C41.3201 121.23 41.6981 121.099 41.9595 120.838C42.2301 120.567 42.3655 120.185 42.3655 119.69V114.51ZM43.2755 119.69C43.2755 120.465 43.0608 121.067 42.6315 121.496C42.2021 121.925 41.6001 122.14 40.8255 122.14H38.2355C37.4608 122.14 36.8588 121.925 36.4295 121.496C36.0001 121.067 35.7855 120.465 35.7855 119.69V114.51C35.7855 113.735 36.0001 113.133 36.4295 112.704C36.8588 112.275 37.4608 112.06 38.2355 112.06H40.8255C41.6001 112.06 42.2021 112.275 42.6315 112.704C43.0608 113.133 43.2755 113.735 43.2755 114.51V119.69ZM52.71 114.51C52.71 114.015 52.5747 113.637 52.304 113.376C52.0427 113.105 51.6647 112.97 51.17 112.97H48.58C48.0853 112.97 47.7027 113.105 47.432 113.376C47.1707 113.637 47.04 114.015 47.04 114.51V119.69C47.04 120.185 47.1707 120.567 47.432 120.838C47.7027 121.099 48.0853 121.23 48.58 121.23H51.17C51.6647 121.23 52.0427 121.099 52.304 120.838C52.5747 120.567 52.71 120.185 52.71 119.69V114.51ZM53.62 119.69C53.62 120.465 53.4053 121.067 52.976 121.496C52.5467 121.925 51.9447 122.14 51.17 122.14H48.58C47.8053 122.14 47.2033 121.925 46.774 121.496C46.3447 121.067 46.13 120.465 46.13 119.69V114.51C46.13 113.735 46.3447 113.133 46.774 112.704C47.2033 112.275 47.8053 112.06 48.58 112.06H51.17C51.9447 112.06 52.5467 112.275 52.976 112.704C53.4053 113.133 53.62 113.735 53.62 114.51V119.69ZM60.7389 119.97V121.79C60.7389 121.93 60.6689 122 60.5289 122H60.0389C59.8989 122 59.8289 121.93 59.8289 121.79V119.97H58.8489C58.7089 119.97 58.6389 119.9 58.6389 119.76V119.27C58.6389 119.13 58.7089 119.06 58.8489 119.06H59.8289V117.8H58.8489C58.7089 117.8 58.6389 117.73 58.6389 117.59V117.1C58.6389 116.96 58.7089 116.89 58.8489 116.89H59.8289V112.41C59.8289 112.27 59.8989 112.2 60.0389 112.2H64.2389C65.0136 112.2 65.6156 112.415 66.0449 112.844C66.4742 113.273 66.6889 113.875 66.6889 114.65V115.35C66.6889 116.125 66.4742 116.727 66.0449 117.156C65.6156 117.585 65.0136 117.8 64.2389 117.8H60.7389V119.06H65.2189C65.3589 119.06 65.4289 119.13 65.4289 119.27V119.76C65.4289 119.9 65.3589 119.97 65.2189 119.97H60.7389ZM60.7389 113.11V116.89H64.2389C64.7336 116.89 65.1116 116.759 65.3729 116.498C65.6436 116.227 65.7789 115.845 65.7789 115.35V114.65C65.7789 114.155 65.6436 113.777 65.3729 113.516C65.1116 113.245 64.7336 113.11 64.2389 113.11H60.7389Z" fill="#1B1C21"/>
</svg>
